<?xml version="1.0" standalone="no"?>
<!DOCTYPE svg PUBLIC "-//W3C//DTD SVG 20010904//EN"
 "http://www.w3.org/TR/2001/REC-SVG-20010904/DTD/svg10.dtd">
<svg version="1.0" xmlns="http://www.w3.org/2000/svg"
 width="2560.000000pt" height="1440.000000pt" viewBox="0 0 2560.000000 1440.000000"
 preserveAspectRatio="xMidYMid meet">

<g transform="translate(0.000000,1440.000000) scale(0.100000,-0.100000)"
fill="#000000" stroke="none">
<path d="M0 7200 l0 -7200 1970 0 c1526 0 1970 3 1970 12 0 9 3 9 12 0 15 -15
82 -16 73 -2 -3 6 1 10 9 10 8 0 18 -5 21 -10 4 -7 130 -10 371 -9 258 0 362
4 357 12 -4 7 0 8 13 2 28 -12 133 -18 115 -7 -19 13 -5 32 24 32 20 0 27 8
36 40 9 28 18 40 31 40 18 0 40 37 31 53 -2 4 -17 7 -33 7 -39 0 -48 18 -13
26 15 4 42 14 58 22 17 8 73 25 125 38 52 12 103 26 113 29 11 5 17 2 17 -8 0
-32 64 -36 118 -7 20 11 62 31 92 45 31 13 64 32 75 42 11 10 32 24 48 30 36
16 34 41 -3 54 -16 6 -30 18 -30 26 0 12 -9 14 -40 11 -22 -2 -40 -1 -40 3 0
3 -26 -7 -57 -22 -41 -20 -62 -25 -74 -18 -25 13 -32 11 -25 -6 6 -17 -5 -20
-20 -5 -6 6 -27 5 -57 -3 -27 -7 -46 -15 -42 -18 3 -3 0 -11 -7 -16 -17 -14
-104 -1 -101 15 4 18 -62 15 -129 -6 -32 -10 -60 -21 -64 -25 -11 -10 55 -8
75 2 11 6 22 6 32 -1 11 -8 11 -9 -3 -4 -16 5 -23 -4 -19 -26 2 -13 -17 -9
-21 3 -5 15 -48 2 -45 -13 3 -15 -56 -34 -61 -20 -2 7 -12 12 -23 12 -10 0
-19 5 -19 10 0 6 10 10 23 10 12 0 29 5 37 11 11 8 6 9 -20 5 -68 -10 -100
-18 -100 -26 0 -5 -22 -11 -49 -15 -37 -5 -54 -13 -66 -31 -15 -23 -15 -24 10
-24 31 0 33 -19 3 -22 -13 0 -36 -2 -51 -3 -15 -1 -30 2 -33 7 -4 5 4 8 16 6
13 -2 25 3 27 9 7 19 -25 27 -51 14 -12 -7 -26 -11 -32 -10 -17 5 -55 -13 -51
-24 2 -7 16 -12 30 -12 21 1 24 -2 15 -13 -7 -7 -20 -11 -30 -9 -11 3 -18 0
-18 -9 0 -8 -7 -14 -15 -14 -9 0 -15 9 -15 25 0 35 -41 34 -69 -1 -12 -15 -21
-22 -21 -15 0 13 -46 15 -54 3 -3 -5 -26 -10 -51 -10 -26 -1 -66 -7 -91 -12
-25 -6 -56 -7 -71 -4 -22 6 -25 4 -20 -10 5 -13 0 -16 -28 -16 -22 0 -38 -6
-44 -18 -6 -9 -11 -12 -11 -5 0 6 -24 16 -52 23 -29 7 -72 23 -94 36 -25 14
-80 30 -135 39 -96 16 -206 45 -269 70 -19 8 -55 17 -80 21 -25 3 -61 14 -80
24 -19 10 -56 26 -82 36 -27 9 -48 23 -48 31 0 10 7 12 23 8 22 -7 22 -7 2 9
-11 8 -34 16 -51 16 -97 1 -115 24 -69 84 27 36 101 68 185 81 24 4 54 13 65
20 11 7 36 16 56 19 20 4 56 20 80 36 24 16 58 30 74 30 17 0 39 7 49 15 11 8
34 15 52 15 18 0 55 12 81 26 26 14 66 29 88 34 22 5 92 27 155 50 63 22 142
50 175 61 33 11 64 24 69 29 6 6 20 10 32 10 12 0 56 11 97 25 48 16 85 23
101 19 15 -3 32 -2 39 3 6 5 26 10 42 11 17 1 62 8 100 16 39 8 79 14 90 14
37 0 149 38 153 53 11 40 11 40 32 29 23 -12 21 -37 -1 -32 -10 2 -11 0 -4 -7
13 -13 55 -3 55 13 0 8 19 10 65 6 36 -3 65 -3 65 0 0 3 24 6 53 7 41 2 64 -4
110 -28 31 -16 57 -25 57 -20 0 18 37 21 70 7 28 -11 31 -15 14 -19 -15 -4
-15 -5 -2 -6 9 0 19 3 23 8 11 19 153 -12 168 -36 4 -7 16 -13 25 -13 10 0 24
-6 31 -13 11 -9 14 -9 18 1 6 17 23 15 23 -3 0 -8 -8 -15 -17 -15 -15 0 -16
-2 -3 -10 9 -5 19 -5 26 1 18 15 186 4 215 -14 23 -15 43 -20 132 -32 21 -3
57 -15 80 -27 43 -22 254 -78 295 -78 12 0 40 -9 60 -19 35 -18 66 -24 166
-36 21 -2 43 -8 50 -13 6 -5 38 -14 71 -21 112 -24 227 -52 264 -66 36 -14
173 -56 246 -76 22 -6 61 -20 87 -30 26 -11 54 -19 62 -19 9 0 24 -4 34 -9 9
-5 70 -26 135 -46 126 -39 179 -73 192 -122 7 -29 -6 -43 -44 -43 -22 0 -23
-3 -18 -45 7 -48 5 -52 -39 -59 -16 -3 -47 -15 -69 -26 -21 -11 -47 -20 -57
-20 -10 0 -29 -6 -41 -14 -12 -8 -39 -14 -61 -14 -21 0 -41 -4 -45 -9 -3 -6
-28 -13 -56 -17 -27 -3 -62 -15 -77 -26 -15 -11 -38 -20 -52 -20 -14 0 -28 -4
-31 -10 -3 -5 -19 -10 -36 -10 -16 0 -29 -4 -29 -9 0 -5 -13 -12 -30 -16 -16
-4 -32 -11 -35 -16 -4 -5 3604 -9 9269 -9 l9276 0 0 7200 0 7200 -12800 0
-12800 0 0 -7200z m4825 7106 c18 -13 19 -26 16 -163 -3 -172 9 -222 77 -321
63 -92 119 -203 137 -267 8 -33 20 -76 25 -96 8 -29 17 -38 42 -45 30 -8 39
-22 95 -134 34 -69 62 -131 63 -137 0 -7 11 -45 24 -85 13 -40 29 -91 35 -113
6 -22 27 -65 47 -95 20 -30 38 -65 39 -77 2 -12 11 -33 22 -47 17 -25 21 -26
88 -20 39 3 146 14 240 26 157 19 186 20 400 10 246 -12 438 -43 516 -82 21
-11 74 -25 116 -31 79 -11 126 -27 118 -39 -2 -4 -18 -5 -35 -2 -24 3 -31 1
-28 -10 2 -8 -16 -33 -39 -56 -57 -56 -98 -119 -110 -167 -18 -75 7 -95 123
-95 l54 0 0 51 c0 76 47 158 119 209 31 22 65 40 76 40 11 1 43 7 70 14 38 10
51 18 53 35 2 15 10 21 28 21 21 0 24 -4 22 -27 -3 -24 1 -27 29 -29 50 -3 84
-13 111 -35 14 -10 35 -19 47 -19 36 0 86 -30 137 -83 26 -27 48 -53 48 -57 0
-4 22 -35 49 -69 38 -48 53 -78 70 -141 12 -44 29 -96 37 -116 8 -19 13 -43
10 -52 -4 -11 12 -35 44 -69 l49 -52 -2 -78 c-2 -43 -8 -86 -13 -97 -9 -15 -2
-32 44 -100 30 -44 72 -106 92 -136 34 -50 73 -128 111 -219 8 -19 35 -78 60
-130 25 -53 56 -129 68 -168 14 -48 27 -73 36 -73 8 0 15 7 15 15 0 9 7 18 14
21 8 3 43 42 78 86 35 45 68 86 73 92 6 6 19 24 30 40 37 54 50 77 205 356 94
170 304 502 414 655 31 44 69 97 84 118 68 97 229 291 314 379 51 53 118 123
149 155 156 163 434 350 772 519 208 105 464 163 723 164 l120 0 41 -42 c23
-24 51 -51 62 -60 39 -33 20 -98 -37 -127 -18 -10 -20 -15 -12 -31 20 -37 12
-75 -23 -108 -33 -32 -34 -32 -153 -37 -121 -4 -299 -29 -318 -44 -6 -5 -29
-14 -51 -21 -78 -24 -344 -169 -481 -261 -106 -72 -179 -133 -314 -261 -96
-92 -197 -191 -223 -220 -27 -29 -61 -66 -76 -83 -65 -71 -383 -530 -421 -607
-41 -86 -100 -191 -144 -258 -25 -38 -60 -99 -78 -136 -18 -37 -45 -80 -60
-96 -16 -17 -28 -35 -28 -40 0 -10 -40 -75 -110 -178 -21 -30 -49 -73 -64 -95
-14 -22 -35 -51 -46 -65 -11 -14 -20 -30 -20 -37 0 -6 -4 -13 -8 -15 -5 -1
-28 -34 -52 -73 -24 -38 -50 -77 -57 -85 -28 -32 -60 -77 -83 -115 -14 -22
-33 -47 -44 -56 -26 -21 -25 -57 9 -189 14 -58 28 -120 30 -137 3 -18 10 -54
16 -80 11 -51 34 -195 49 -303 5 -36 16 -105 24 -155 9 -49 16 -130 16 -178 0
-49 5 -121 10 -160 27 -179 42 -272 46 -279 5 -8 16 -359 17 -533 1 -335 -21
-732 -42 -775 -4 -8 -13 -42 -20 -75 -7 -33 -24 -107 -38 -165 -14 -58 -26
-116 -28 -130 -2 -14 -11 -41 -19 -61 -8 -20 -17 -52 -19 -71 -2 -18 -13 -54
-25 -79 -12 -25 -22 -53 -22 -62 0 -33 -117 -235 -188 -325 -18 -22 -32 -43
-32 -46 0 -3 -8 -14 -17 -25 -10 -10 -33 -43 -51 -73 -18 -31 -43 -65 -56 -77
l-23 -21 3 -338 c2 -308 -12 -649 -32 -772 -4 -25 -8 -65 -9 -90 -4 -71 -14
-151 -25 -205 -6 -27 -14 -72 -19 -100 -33 -179 -67 -321 -116 -480 -78 -252
-95 -316 -99 -352 -1 -21 -6 -45 -10 -54 -4 -9 -8 -29 -10 -45 -2 -15 -8 -30
-15 -32 -6 -2 -11 -11 -11 -20 0 -14 -2 -14 -9 -3 -7 11 -10 8 -16 -10 -5 -14
-3 -25 3 -27 8 -2 8 -11 1 -29 -5 -13 -7 -29 -3 -34 6 -10 -32 -79 -50 -91 -6
-4 -14 -4 -18 -2 -4 3 -8 -5 -8 -17 0 -22 -24 -101 -47 -157 -8 -18 -12 -36
-9 -41 3 -5 0 -11 -8 -14 -9 -3 -12 -15 -9 -31 4 -20 1 -26 -12 -26 -13 0 -15
-6 -11 -28 4 -17 1 -35 -8 -47 -9 -11 -16 -28 -16 -37 0 -10 -5 -18 -11 -18
-8 0 -10 -14 -6 -40 3 -22 1 -43 -4 -46 -5 -3 -9 -18 -9 -34 0 -31 19 -47 120
-103 25 -14 45 -31 45 -39 0 -7 7 -16 16 -20 15 -6 24 -35 32 -103 1 -11 5
-24 8 -30 4 -5 9 -22 13 -37 3 -16 11 -28 16 -28 6 0 10 -7 10 -15 0 -8 -9
-15 -19 -15 -19 0 -37 -32 -33 -57 2 -7 -3 -13 -9 -13 -7 0 -26 -10 -43 -23
-17 -13 -43 -24 -59 -25 -31 -2 -79 -30 -72 -42 9 -14 -18 -17 -60 -8 -50 11
-86 34 -79 51 3 8 -12 19 -40 29 -38 14 -44 14 -39 2 5 -12 1 -13 -21 -3 -15
7 -25 18 -22 25 3 7 -14 25 -37 41 -120 81 -144 103 -171 158 -14 30 -30 55
-34 55 -4 0 -13 14 -19 31 -13 33 -1 143 18 166 14 16 114 220 124 252 4 14
23 56 41 95 19 39 34 76 34 83 0 7 9 32 19 56 34 74 93 231 98 262 3 17 11 44
17 60 7 17 18 55 25 85 12 53 34 123 51 165 36 86 87 261 124 425 15 63 31
131 36 150 14 53 41 251 38 274 -1 12 2 28 7 36 11 16 11 17 19 130 4 41 9 92
11 112 4 30 2 36 -10 32 -17 -7 -19 4 -5 26 8 12 10 12 10 1 0 -8 2 -12 5 -9
12 11 26 188 31 373 3 129 2 185 -5 175 -6 -8 -9 -35 -7 -60 1 -25 0 -58 -4
-75 -8 -35 -23 151 -16 200 2 17 1 34 -2 40 -4 5 -5 22 -4 36 4 37 -23 57 -51
39 -12 -8 -51 -29 -85 -48 -52 -27 -70 -32 -101 -27 -27 4 -55 -1 -107 -20
-113 -43 -152 -54 -197 -56 -23 -1 -67 -8 -97 -16 -129 -35 -169 -42 -241 -43
-36 0 -69 -3 -72 -7 -6 -6 -220 -7 -249 -1 -10 2 -14 -42 -19 -202 -5 -173 -4
-254 2 -415 1 -27 -8 -150 -11 -150 -1 0 -4 -31 -6 -70 -9 -144 -12 -191 -15
-239 -1 -27 -8 -64 -14 -84 -7 -19 -11 -52 -9 -73 2 -27 -1 -42 -10 -45 -8 -3
-12 -14 -9 -25 3 -10 0 -40 -7 -67 -7 -26 -16 -69 -20 -97 -21 -128 -64 -303
-108 -440 -27 -82 -61 -197 -77 -255 -15 -58 -50 -172 -77 -255 -27 -82 -65
-201 -84 -263 -19 -62 -42 -125 -50 -140 -7 -15 -14 -33 -14 -40 0 -7 -4 -20
-9 -30 -5 -9 -23 -48 -41 -85 l-32 -68 36 -53 c20 -30 40 -56 44 -58 7 -3 63
-79 113 -155 21 -31 44 -144 31 -152 -5 -3 -14 -22 -21 -41 -18 -54 -39 -80
-57 -73 -10 4 -22 0 -28 -9 -17 -23 -54 -28 -104 -12 -26 7 -58 14 -71 14 -39
0 -151 72 -212 137 -50 52 -129 161 -129 178 0 4 -11 21 -25 38 -24 32 -24 34
-11 117 11 78 53 194 82 230 6 8 15 25 18 38 4 12 16 27 26 32 17 9 24 30 33
97 4 26 17 43 17 23 0 -26 17 5 30 55 7 28 17 56 23 63 8 10 12 38 16 124 1 9
12 27 25 40 25 24 52 100 81 228 10 41 24 90 31 108 8 18 14 45 14 60 1 15 8
45 16 67 16 40 42 126 69 221 8 28 19 87 24 130 6 44 19 140 30 214 11 74 25
198 31 275 6 77 12 149 15 160 2 11 5 95 6 185 1 91 5 177 10 192 4 16 3 30
-2 33 -5 4 -9 59 -10 123 0 64 -5 144 -10 177 -5 33 -12 74 -14 90 -17 135
-23 160 -41 173 -27 19 -131 81 -184 109 -25 13 -56 30 -70 37 -14 8 -38 20
-54 27 -16 8 -47 31 -70 52 -23 22 -64 46 -91 55 -41 14 -50 21 -49 40 0 15
-4 21 -13 18 -8 -3 -16 1 -19 9 -4 10 -14 13 -29 9 -13 -3 -26 0 -31 7 -5 9
-2 11 9 6 18 -7 39 14 29 30 -4 6 -16 12 -27 15 -15 3 -19 10 -17 30 3 28 -28
55 -48 43 -6 -3 -10 -2 -10 4 0 5 -12 11 -27 13 -19 2 -29 10 -31 23 -2 11
-10 25 -19 32 -12 10 -11 12 6 18 25 8 27 21 5 29 -11 4 -15 14 -11 31 2 15
-1 29 -9 33 -12 7 -14 11 -14 31 0 5 -11 12 -24 15 -14 3 -28 15 -31 26 -3 11
-11 20 -16 20 -15 0 -39 26 -39 42 1 7 9 3 20 -11 16 -18 21 -20 25 -8 7 15
-23 63 -68 112 -53 57 -57 62 -57 78 0 10 -7 17 -15 17 -8 0 -15 9 -15 20 0
11 -7 20 -15 20 -8 0 -15 7 -15 15 0 9 -7 29 -15 46 -14 26 -14 30 -1 35 19 7
3 44 -19 44 -21 0 -26 15 -16 43 8 21 7 26 -11 30 -14 4 -19 11 -14 22 10 27
-4 65 -24 65 -23 0 -33 29 -22 60 9 23 -8 73 -29 85 -5 4 -9 15 -9 25 0 10 -6
31 -14 47 -8 15 -20 48 -27 73 -7 25 -20 54 -29 65 -10 11 -20 36 -24 55 -3
19 -16 44 -28 57 -11 12 -22 37 -23 55 -2 19 -12 40 -25 50 -11 9 -20 25 -18
35 2 11 -2 17 -10 15 -10 -2 -12 5 -7 28 6 27 4 30 -19 30 -16 0 -26 6 -26 15
0 8 -4 15 -10 15 -5 0 -10 7 -10 15 0 22 15 18 33 -7 17 -27 33 -19 18 9 -5
10 -18 35 -27 56 -9 21 -25 42 -35 48 -20 10 -26 44 -9 54 6 4 4 15 -6 30 -9
13 -13 28 -10 33 3 5 -3 20 -14 32 -11 13 -21 27 -21 32 -3 19 -5 24 -12 36
-5 6 -6 16 -3 21 3 5 -1 14 -9 21 -8 7 -15 21 -15 31 0 10 -4 21 -10 24 -5 3
-10 19 -10 35 0 16 -4 32 -10 35 -5 3 -10 16 -10 28 0 13 -7 33 -16 45 -13 19
-13 28 -3 57 10 28 10 39 -1 60 -7 14 -11 28 -8 31 4 3 -1 22 -9 42 -9 20 -17
61 -19 90 -5 72 -6 74 -32 95 -13 11 -21 25 -18 33 3 7 1 16 -5 19 -6 4 -6 13
0 23 6 11 4 20 -7 28 -12 9 -17 29 -17 71 -1 32 -9 75 -18 97 -9 21 -17 44
-17 52 0 7 -4 16 -10 19 -15 9 -12 25 5 25 14 0 14 3 1 23 -11 18 -21 82 -28
177 0 8 -5 20 -10 27 -5 7 -7 22 -3 33 4 14 1 28 -10 40 -9 10 -14 23 -11 28
3 5 0 48 -6 96 -11 80 -10 90 7 122 13 25 24 34 39 32 18 -3 21 2 22 38 0 23
4 48 7 57 3 9 -1 18 -9 21 -23 9 -16 26 11 26 36 0 31 14 -20 56 -26 23 -47
49 -51 67 -3 17 -35 59 -78 102 -93 95 -221 243 -271 314 -21 31 -42 58 -45
61 -3 3 -14 19 -24 35 -10 17 -50 71 -87 121 -38 50 -69 96 -69 103 0 6 -4 11
-8 11 -4 0 -16 15 -26 33 -10 17 -34 55 -52 83 -18 28 -40 70 -50 95 -9 24
-27 52 -40 62 -13 10 -24 26 -24 35 0 10 -10 34 -23 54 -12 20 -36 61 -53 90
-18 29 -44 67 -58 83 -14 17 -26 33 -26 37 0 3 -16 25 -35 48 -19 23 -35 48
-35 56 0 8 -4 14 -10 14 -5 0 -10 6 -10 14 0 8 -4 16 -9 18 -4 2 -25 36 -46
76 -20 39 -43 72 -51 72 -14 0 -68 67 -85 105 -10 23 -17 34 -81 130 -26 38
-82 109 -125 157 -43 47 -94 107 -113 133 -59 79 -72 92 -186 208 -61 62 -119
127 -129 144 -10 17 -29 36 -42 42 -12 6 -23 17 -23 25 0 8 -13 24 -30 36 -16
12 -32 31 -36 44 -3 12 -17 30 -32 38 -15 9 -39 27 -53 40 -15 13 -39 30 -55
39 -16 8 -28 23 -28 33 2 12 -3 15 -17 11 -14 -5 -29 3 -53 29 -18 20 -43 38
-55 41 -31 6 -41 14 -41 34 0 20 -43 42 -75 38 -12 -1 -23 6 -29 19 -8 18 -99
64 -127 64 -6 0 -34 11 -62 24 -71 33 -197 78 -226 80 -13 2 -29 10 -36 19 -6
8 -24 19 -41 23 -16 4 -33 10 -39 13 -5 4 -28 13 -49 20 -37 13 -41 12 -58 -9
-10 -12 -18 -17 -18 -10 0 6 -8 9 -17 6 -20 -6 -108 18 -128 34 -7 6 -31 12
-55 14 -23 2 -47 9 -53 15 -6 6 -18 11 -27 11 -8 0 -32 9 -53 20 -37 20 -48
16 -24 -9 10 -11 7 -12 -15 -7 -49 11 -79 26 -73 35 3 5 1 12 -4 16 -5 3 -14
-2 -20 -12 -7 -14 -14 -16 -37 -8 -15 6 -32 19 -38 30 -6 11 -16 23 -23 28
-22 14 12 71 52 88 17 6 14 8 -12 8 -26 1 -36 7 -49 32 -29 57 3 125 52 113
12 -3 25 -1 28 5 4 5 14 8 24 5 9 -2 2 3 -17 11 -30 14 -33 19 -27 47 3 17 6
36 6 43 0 89 550 -43 985 -235 399 -177 668 -329 829 -470 30 -26 91 -74 135
-106 45 -32 97 -70 116 -84 19 -14 45 -40 58 -57 13 -18 37 -43 53 -55 16 -12
33 -29 38 -37 5 -8 26 -30 47 -50 22 -19 39 -39 39 -43 0 -7 25 -39 55 -72 6
-6 26 -33 45 -61 18 -27 36 -52 39 -55 4 -3 18 -21 33 -42 15 -20 43 -53 63
-73 19 -21 35 -42 35 -46 0 -5 20 -30 43 -57 24 -27 64 -80 88 -118 24 -37 82
-125 128 -194 47 -69 107 -159 134 -200 27 -41 60 -86 72 -100 22 -24 43 -56
81 -125 17 -31 50 -82 139 -220 74 -115 175 -284 175 -295 0 -5 4 -11 9 -14 5
-3 7 51 6 122 -2 114 0 128 17 140 13 9 18 25 18 50 -1 46 32 200 53 244 8 18
23 69 32 113 10 44 22 83 28 86 5 4 17 29 27 56 27 78 125 209 273 366 53 56
78 76 90 71 9 -3 17 -2 17 4 0 5 19 22 43 37 23 16 62 45 87 65 79 65 293 180
437 235 54 21 102 41 106 45 5 4 -16 29 -45 55 -37 32 -46 45 -30 40 23 -7 23
-6 5 15 -10 12 -34 31 -53 43 -93 57 -237 203 -312 316 -99 149 -128 211 -144
308 -7 45 -18 100 -24 120 -5 21 -13 110 -16 198 -8 175 0 242 43 385 13 47
25 92 26 100 0 8 6 21 14 28 7 7 14 21 14 30 1 9 2 22 4 27 1 6 3 16 3 23 3
17 113 16 137 -2z m-3696 -1045 c7 -5 10 -14 6 -20 -5 -9 -10 -9 -21 0 -26 22
-14 38 15 20z m76 -61 c3 -5 1 -10 -4 -10 -6 0 -11 5 -11 10 0 6 2 10 4 10 3
0 8 -4 11 -10z m12942 -120 c11 -16 10 -18 -1 -14 -15 6 -30 34 -18 34 4 0 13
-9 19 -20z m140 -187 c3 -10 19 -37 36 -59 24 -35 27 -45 18 -63 -15 -28 -37
-27 -45 3 -3 13 -15 26 -26 29 -36 9 -54 92 -22 100 30 8 32 7 39 -10z m-248
-240 c-1 -48 -4 -56 -26 -66 -19 -8 -29 -8 -45 2 -17 10 -22 10 -29 0 -14 -23
-39 10 -39 51 0 45 34 94 60 87 10 -2 24 -1 31 4 27 16 48 -19 48 -78z m-6630
-47 c17 -9 31 -18 31 -21 0 -3 -116 28 -150 40 -12 5 -12 7 -1 15 15 8 64 -6
120 -34z m6828 2 c-3 -7 -5 -2 -5 12 0 14 2 19 5 13 2 -7 2 -19 0 -25z m-7040
0 c-3 -8 -6 -5 -6 6 -1 11 2 17 5 13 3 -3 4 -12 1 -19z m7684 -110 c1 -7 1
-17 0 -21 -1 -4 7 -45 18 -90 11 -45 25 -111 32 -147 6 -36 22 -85 34 -110 12
-25 25 -56 28 -70 4 -14 14 -34 24 -45 10 -11 31 -39 47 -63 16 -24 34 -46 40
-50 6 -4 19 -20 29 -35 10 -15 32 -37 50 -48 l32 -19 -45 2 c-27 2 -51 10 -61
21 -9 9 -21 17 -28 17 -6 0 -16 9 -23 19 -11 17 -13 18 -23 4 -9 -13 -16 -13
-33 -4 -27 14 -28 28 -4 34 16 4 16 4 0 10 -10 4 -25 9 -33 12 -8 2 -15 10
-15 16 0 8 4 8 15 -1 18 -15 20 1 3 18 -9 9 -7 13 5 18 24 9 21 31 -5 39 -15
6 -26 1 -40 -16 -18 -24 -19 -24 -33 -5 -9 12 -16 45 -17 85 -4 138 -6 164
-15 170 -9 6 -17 87 -15 156 3 103 5 115 18 115 8 0 15 -6 15 -12z m-91 -290
c0 -16 -3 -19 -11 -11 -6 6 -8 16 -5 22 11 17 16 13 16 -11z m0 -73 c10 -12
10 -15 -4 -15 -9 0 -16 7 -16 15 0 8 2 15 4 15 2 0 9 -7 16 -15z m704 -326
c18 -36 14 -49 -16 -49 -16 0 -19 5 -15 22 3 12 2 30 -4 40 -7 14 -6 18 5 18
8 0 22 -14 30 -31z m114 8 c3 -14 -1 -18 -20 -15 -12 2 -24 11 -26 21 -3 14 1
18 20 15 12 -2 24 -11 26 -21z m62 -2 c10 -12 10 -19 2 -27 -16 -16 -42 -2
-42 22 0 24 22 26 40 5z m-237 -14 c4 -1 7 -8 7 -16 0 -17 -65 -21 -89 -6 -24
15 -1 32 37 27 20 -3 40 -5 45 -5z m-186 -7 c-3 -3 -12 -4 -19 -1 -8 3 -5 6 6
6 11 1 17 -2 13 -5z m-157 -25 c0 -5 -4 -9 -10 -9 -5 0 -10 7 -10 16 0 8 5 12
10 9 6 -3 10 -10 10 -16z m210 -13 c0 -3 -4 -8 -10 -11 -5 -3 -10 -1 -10 4 0
6 5 11 10 11 6 0 10 -2 10 -4z m470 -18 c0 -10 -7 -21 -15 -24 -10 -4 -13 -13
-10 -25 5 -14 1 -19 -14 -19 -12 0 -21 5 -21 10 0 6 5 10 10 10 18 0 10 16
-15 30 -22 12 -23 14 -8 25 8 6 29 12 44 12 22 0 29 -5 29 -19z m-372 -6 c2
-7 -3 -12 -12 -12 -9 0 -16 7 -16 16 0 17 22 14 28 -4z m491 -41 c20 -19 26
-31 18 -34 -16 -6 -57 10 -57 22 0 5 -3 16 -6 25 -10 25 11 19 45 -13z m94 -2
c27 -29 21 -39 -15 -27 -28 9 -68 39 -68 51 0 11 68 -8 83 -24z m-174 7 c9
-10 9 -16 1 -21 -17 -11 -40 3 -34 20 8 19 18 19 33 1z m-289 -6 c0 -5 -5 -10
-11 -10 -5 0 -7 5 -4 10 3 6 8 10 11 10 2 0 4 -4 4 -10z m545 -49 c7 -12 -32
-34 -45 -26 -6 3 -10 13 -10 21 0 16 45 20 55 5z m4634 -381 c17 0 31 -5 31
-11 0 -6 -7 -9 -15 -5 -13 5 -14 2 -4 -15 15 -28 -3 -41 -53 -37 -21 2 -39 -1
-42 -7 -4 -13 -109 -67 -122 -64 -5 2 -24 -1 -41 -5 -26 -6 -33 -13 -33 -32 0
-13 -4 -24 -10 -24 -5 0 -10 -7 -10 -15 0 -8 5 -15 10 -15 6 0 10 7 10 15 0
20 26 19 34 -1 10 -26 7 -35 -11 -33 -41 4 -63 -2 -63 -16 0 -8 -7 -15 -15
-15 -14 0 -19 -11 -16 -37 1 -7 -7 -13 -19 -13 -11 0 -20 -7 -20 -15 0 -9 -9
-15 -25 -15 -14 0 -25 -5 -25 -11 0 -5 -5 -7 -10 -4 -7 4 -9 -2 -4 -19 7 -29
-2 -32 -30 -11 -29 22 -37 18 -26 -10 7 -20 6 -25 -5 -25 -8 0 -15 4 -15 9 0
4 -12 6 -26 3 -19 -3 -24 -9 -21 -23 5 -18 -17 -34 -34 -24 -5 3 -19 1 -31 -6
-12 -7 -31 -13 -43 -14 -11 -1 -23 -3 -27 -4 -4 0 -9 -10 -13 -20 -3 -12 -19
-22 -38 -26 -18 -4 -43 -14 -57 -23 -14 -10 -34 -17 -45 -17 -14 0 -20 -6 -19
-22 1 -13 -1 -23 -5 -24 -3 0 -19 -2 -34 -3 -16 -1 -32 -8 -37 -16 -5 -8 -17
-15 -27 -15 -11 0 -19 -9 -21 -22 -3 -19 -8 -21 -38 -16 -36 6 -39 1 -34 -54
2 -26 -36 -67 -56 -59 -8 3 -14 -1 -14 -10 0 -8 -7 -17 -15 -20 -17 -7 -21
-34 -5 -34 6 0 10 -6 10 -14 0 -8 -21 -19 -51 -28 l-50 -14 25 -27 c14 -16 26
-32 26 -36 0 -5 9 -11 20 -14 11 -3 20 -14 20 -25 0 -42 -102 -30 -171 20 -16
12 -32 18 -36 13 -5 -4 -2 -10 5 -12 6 -3 12 -11 12 -18 0 -7 -6 -15 -12 -18
-7 -2 -4 -3 7 -1 14 2 26 -6 37 -26 19 -33 15 -36 -22 -15 -35 20 -47 18 -53
-6 -3 -12 -10 -18 -16 -14 -6 3 -9 10 -6 15 3 4 -2 13 -9 20 -12 9 -17 7 -26
-10 -11 -20 -13 -20 -29 -6 -19 18 -46 22 -36 6 4 -6 -8 -10 -29 -10 -19 0
-38 5 -41 10 -4 6 -11 8 -16 4 -5 -3 -7 -10 -4 -15 6 -9 -12 -13 -52 -10 -12
1 -25 -4 -30 -12 -10 -18 -67 -29 -81 -15 -9 9 -42 -20 -126 -117 l-26 -30 7
30 c3 16 12 36 20 43 17 18 16 32 -3 53 -15 17 -15 22 2 71 11 29 22 55 27 56
4 2 7 10 7 18 0 7 13 23 29 35 17 12 35 35 42 51 6 16 17 32 23 36 7 4 28 32
48 62 88 132 205 217 558 406 14 8 28 14 31 14 4 0 33 18 66 40 59 39 136 80
270 141 123 57 148 69 163 78 24 15 202 80 245 90 22 5 67 16 100 25 33 10 80
19 105 21 25 2 63 10 85 18 25 9 46 11 57 6 9 -5 30 -9 47 -9z m-5084 -30 c3
-5 -1 -10 -10 -10 -9 0 -13 5 -10 10 3 6 8 10 10 10 2 0 7 -4 10 -10z m5029
-105 c11 -8 17 -17 14 -21 -7 -6 -48 17 -48 28 0 12 13 9 34 -7z m271 -24 c3
-5 1 -12 -5 -16 -5 -3 -10 1 -10 9 0 18 6 21 15 7z m-4175 -876 c0 -17 33 -28
58 -21 21 7 72 -34 72 -57 0 -8 11 -19 25 -25 27 -12 33 -28 13 -35 -8 -2 1
-13 20 -24 36 -22 70 -63 52 -63 -5 0 2 -19 17 -42 26 -40 54 -69 128 -133 45
-39 143 -85 181 -85 71 0 46 -63 -29 -75 -54 -9 -251 -64 -294 -81 -18 -8 -37
-23 -43 -34 -14 -26 -28 -25 -64 4 -28 24 -29 24 -7 35 11 7 21 9 21 6 0 -4 5
-3 11 1 23 14 -10 23 -89 25 -45 1 -85 5 -88 10 -3 5 1 9 8 9 7 0 25 6 40 14
23 12 26 12 21 0 -3 -8 1 -14 10 -14 8 0 14 8 13 17 -1 12 10 20 36 26 20 5
39 15 42 23 4 11 1 14 -12 10 -10 -4 -27 0 -37 8 -17 12 -13 15 45 23 39 5 79
5 99 0 37 -10 119 10 104 24 -12 11 -153 18 -159 7 -3 -5 -12 -1 -20 9 -12 17
-13 17 -14 1 0 -10 -5 -18 -11 -18 -6 0 -8 9 -4 21 5 15 4 19 -4 15 -6 -4 -11
-15 -11 -24 0 -13 -5 -12 -20 8 -20 27 -11 53 16 43 8 -3 14 0 14 6 0 6 -7 11
-16 11 -11 0 -14 6 -9 20 3 11 2 20 -3 20 -5 0 -12 9 -15 20 -4 18 -2 20 16
14 12 -4 24 -10 27 -14 3 -4 14 -4 25 1 18 7 18 8 2 8 -11 1 -24 15 -33 36
-16 40 -31 44 -63 14 -12 -12 -30 -19 -40 -16 -11 2 -26 -4 -35 -15 -19 -21
-38 -16 -29 8 5 12 0 15 -22 12 -16 -2 -30 2 -32 10 -3 7 1 10 11 6 11 -4 16
-1 16 10 0 9 5 16 10 16 6 0 10 -4 10 -10 0 -5 7 -10 15 -10 8 0 15 6 15 14 0
8 2 20 5 28 3 7 -5 18 -17 23 -13 6 -22 16 -20 23 1 7 -7 12 -18 12 -29 0 -24
17 9 35 19 9 32 11 36 5 11 -18 26 -10 23 13 -2 12 -8 22 -15 22 -6 0 -15 4
-20 8 -4 5 1 8 12 7 35 -4 39 0 19 14 -14 10 -21 11 -26 3 -13 -22 -18 0 -6
31 12 30 28 34 28 7z m45 15 c3 -5 -1 -10 -9 -10 -9 0 -16 5 -16 10 0 6 4 10
9 10 6 0 13 -4 16 -10z m-1451 -82 c7 -5 4 -8 -6 -8 -12 0 -18 7 -17 23 0 15
2 17 6 7 3 -8 11 -18 17 -22z m11 -48 c3 -5 1 -10 -4 -10 -6 0 -11 5 -11 10 0
6 2 10 4 10 3 0 8 -4 11 -10z m-5329 -49 c64 -47 82 -77 89 -152 0 -9 11 -29
23 -44 24 -31 28 -43 36 -124 4 -42 12 -62 35 -85 25 -28 57 -91 123 -251 11
-27 24 -59 29 -70 5 -11 13 -40 18 -65 12 -52 153 -343 241 -495 32 -56 90
-163 127 -236 114 -228 199 -358 308 -476 85 -92 90 -111 56 -212 -10 -31 -24
-75 -30 -98 -11 -42 -31 -59 -31 -28 0 9 -6 15 -12 14 -45 -6 -88 40 -88 93 0
21 -4 38 -9 38 -5 0 -12 11 -15 24 -7 30 -35 37 -108 27 -35 -5 -58 -4 -58 2
0 5 -7 7 -14 4 -10 -4 -17 2 -22 16 -3 12 -16 33 -29 47 -13 14 -26 36 -30 50
-4 14 -12 28 -17 31 -15 10 -48 89 -38 89 6 0 10 -4 10 -10 0 -5 5 -10 12 -10
6 0 2 10 -10 23 -11 12 -29 40 -38 62 -9 22 -25 46 -35 53 -11 7 -17 18 -14
23 4 5 -6 24 -20 44 -15 19 -24 39 -21 44 4 5 -5 26 -19 47 -14 20 -25 42 -25
49 0 6 -12 22 -26 36 -26 24 -66 92 -62 106 2 12 -24 63 -33 63 -4 0 -10 7
-13 16 -3 8 -2 12 4 9 16 -10 12 11 -5 25 -8 7 -12 16 -9 21 9 15 -16 88 -38
108 -11 11 -21 33 -22 49 -1 17 -9 39 -18 49 -10 11 -19 30 -20 44 -2 19 -13
27 -53 40 -28 9 -43 18 -35 21 8 3 38 12 65 22 28 9 56 18 63 20 20 4 70 54
77 77 9 26 -29 103 -61 123 -12 9 -25 30 -29 48 -4 18 -11 39 -16 48 -39 73
-56 131 -54 179 1 28 -2 51 -7 51 -5 0 -13 10 -18 23 -6 15 -9 17 -9 6 -2 -31
-214 -97 -271 -84 -25 6 -50 44 -50 76 0 11 12 18 38 23 21 3 49 15 62 26 21
18 25 19 33 5 5 -9 6 -23 3 -30 -3 -8 5 -21 17 -30 21 -15 22 -14 27 16 5 33
12 39 69 60 19 7 29 15 23 17 -7 2 -9 9 -5 15 4 7 0 8 -11 4 -25 -10 -40 2
-25 19 7 9 8 14 1 14 -6 0 -12 -6 -14 -12 -8 -22 -55 7 -60 36 -5 24 -2 27 33
32 40 7 54 24 20 24 -12 0 -23 14 -35 43 -18 49 -20 67 -6 67 18 0 11 21 -21
61 l-31 39 30 0 c16 0 46 -13 68 -29z m5364 10 c0 -6 -4 -13 -10 -16 -5 -3
-10 1 -10 9 0 9 5 16 10 16 6 0 10 -4 10 -9z m1280 -51 c0 -5 -5 -10 -11 -10
-5 0 -7 5 -4 10 3 6 8 10 11 10 2 0 4 -4 4 -10z m-1261 -21 c-16 -10 -23 -4
-14 10 3 6 11 8 17 5 6 -4 5 -9 -3 -15z m74 -30 c28 -32 34 -45 17 -34 -6 4
-10 -6 -10 -23 0 -21 -6 -31 -20 -35 -27 -7 -45 16 -25 33 17 14 11 32 -9 24
-18 -7 -30 27 -14 38 7 4 9 8 5 8 -13 0 3 20 16 20 7 0 25 -14 40 -31z m-5587
1 c22 -8 32 -21 42 -52 12 -36 11 -43 -2 -50 -9 -5 -16 -22 -16 -38 0 -54 -18
-40 -41 33 -12 39 -31 78 -41 86 -10 7 -18 17 -18 22 0 12 40 11 76 -1z m-99
-48 c13 -8 47 -82 57 -123 3 -15 0 -34 -8 -45 -13 -17 -16 -17 -42 -4 -16 9
-35 33 -46 60 -10 25 -23 52 -27 60 -5 10 -3 23 5 35 8 10 14 15 14 10 0 -5 5
-4 12 3 14 14 19 14 35 4z m6983 -6 c0 -7 -11 -21 -25 -30 -29 -19 -31 -15 -9
19 18 28 34 33 34 11z m-1230 -27 c0 -4 9 -5 20 -2 15 4 20 0 20 -15 0 -11 -6
-22 -14 -25 -9 -4 -12 -14 -9 -26 4 -16 1 -21 -15 -21 -26 0 -70 66 -54 82 6
6 8 17 5 25 -4 11 -1 12 21 2 14 -7 26 -16 26 -20z m2760 1 c0 -10 -4 -22 -10
-25 -6 -4 -10 7 -10 25 0 18 4 29 10 25 6 -3 10 -15 10 -25z m-2206 -5 c21
-16 15 -18 -21 -9 -13 4 -23 10 -23 15 0 13 23 10 44 -6z m90 -1 c9 -3 16 -13
16 -21 0 -10 -6 -13 -16 -9 -9 3 -18 6 -20 6 -2 0 -4 7 -4 15 0 17 2 18 24 9z
m43 -74 c20 -15 21 -19 7 -24 -18 -7 -73 32 -73 52 -1 14 26 3 66 -28z m2065
-42 c-15 -15 -27 14 -17 40 6 15 8 15 18 -6 7 -16 7 -26 -1 -34z m-1952 12 c0
-4 -7 -10 -15 -13 -16 -7 -29 8 -20 23 6 10 35 2 35 -10z m30 10 c0 -5 -2 -10
-4 -10 -3 0 -8 5 -11 10 -3 6 -1 10 4 10 6 0 11 -4 11 -10z m-624 -15 c10 -8
29 -15 41 -15 12 0 24 -6 26 -12 4 -10 8 -10 15 1 7 10 16 11 38 3 l29 -10
-32 -1 c-38 -1 -45 -24 -13 -41 16 -9 18 -8 14 5 -4 10 0 15 15 15 12 0 30 9
41 20 l21 21 27 -21 c15 -13 28 -17 30 -11 2 6 8 11 13 11 6 0 2 -11 -8 -25
-19 -25 -47 -33 -58 -15 -3 6 -11 10 -17 10 -6 0 -3 -9 6 -19 11 -12 13 -21 7
-25 -6 -4 -8 -13 -4 -21 7 -21 -1 -19 -48 11 -37 23 -40 24 -34 6 3 -11 1 -23
-5 -27 -7 -4 -10 0 -8 11 2 16 -2 18 -27 16 -16 -2 -31 -8 -33 -13 -2 -5 -11
-9 -20 -9 -12 0 -11 5 7 24 l23 25 -34 35 c-19 20 -40 36 -45 36 -6 0 -16 7
-23 15 -10 13 -9 15 12 15 13 0 33 -7 44 -15z m754 6 c0 -5 -5 -11 -11 -13 -6
-2 -9 -15 -7 -28 4 -23 5 -23 13 -6 10 22 41 56 53 56 4 0 8 -14 9 -30 1 -18
-2 -28 -8 -25 -5 4 -7 11 -3 16 3 6 -3 5 -14 -2 -11 -7 -19 -23 -19 -36 0 -17
3 -21 12 -13 12 10 25 4 25 -13 0 -5 -13 -7 -30 -3 -16 3 -30 2 -30 -3 0 -12
-42 -1 -58 15 -9 9 -9 20 -2 38 8 22 7 26 -7 26 -27 0 -2 18 32 23 17 2 33 5
38 6 4 0 7 -3 7 -8z m260 -11 c0 -5 -5 -10 -11 -10 -5 0 -7 5 -4 10 3 6 8 10
11 10 2 0 4 -4 4 -10z m-1112 -28 c9 9 12 8 12 -5 0 -11 8 -17 22 -17 17 0 19
-3 10 -12 -7 -7 -12 -20 -12 -29 0 -24 -15 -32 -49 -24 -26 5 -28 10 -29 56
-1 48 0 50 17 35 13 -12 20 -13 29 -4z m467 1 c4 -12 8 -13 19 -4 9 7 29 9 54
5 38 -6 41 -9 39 -35 -1 -20 -6 -28 -15 -24 -8 3 -17 5 -22 5 -4 0 -10 8 -12
18 -6 21 -44 26 -52 6 -8 -22 -34 -17 -67 14 l-29 27 39 1 c27 1 42 -4 46 -13z
m280 -23 c-24 -26 -32 -18 -9 9 10 11 20 18 23 16 2 -3 -4 -14 -14 -25z
m-1382 -17 c7 -35 2 -39 -26 -25 -12 6 -33 12 -47 14 -37 4 -26 22 17 29 21 3
41 7 44 8 4 0 9 -11 12 -26z m117 12 c0 -6 16 -13 37 -16 l38 -6 -41 -2 c-34
-1 -43 3 -47 20 -3 11 -1 19 5 17 5 -2 9 -8 8 -13z m-56 -4 c7 -11 -22 -23
-35 -15 -5 3 -7 10 -4 15 8 12 32 12 39 0z m526 -11 c0 -5 -4 -10 -9 -10 -6 0
-13 5 -16 10 -3 6 1 10 9 10 9 0 16 -4 16 -10z m2697 -22 c-3 -7 -5 -2 -5 12
0 14 2 19 5 13 2 -7 2 -19 0 -25z m-8533 -21 c4 -19 3 -26 -4 -22 -5 3 -10 18
-10 32 0 32 5 28 14 -10z m6642 -3 c-5 -14 -9 -15 -19 -5 -9 9 -9 14 3 21 18
11 24 6 16 -16z m2204 7 c13 -25 13 -34 0 -26 -16 10 -32 45 -21 45 6 0 15 -9
21 -19z m-2255 -1 c-3 -5 -13 -10 -21 -10 -8 0 -19 -11 -24 -24 -5 -14 -19
-26 -32 -29 -16 -3 -13 -5 11 -6 33 -1 34 -2 15 -16 -19 -15 -19 -16 1 -13 11
1 25 -1 31 -4 6 -4 23 -1 38 7 26 14 27 13 20 -7 -6 -21 -6 -22 12 -4 11 12
19 15 22 7 2 -6 11 -11 19 -11 11 0 14 7 9 24 -4 18 -1 25 15 29 12 3 32 1 45
-5 15 -7 28 -8 36 -1 16 12 65 10 79 -4 7 -7 5 -14 -6 -23 -19 -16 -19 -36 1
-44 12 -4 14 -1 9 14 -4 11 -2 20 4 20 6 0 11 7 11 15 0 18 75 22 85 4 4 -5
19 -15 33 -20 32 -12 19 -22 -40 -33 -20 -4 -39 -13 -42 -22 -4 -12 -16 -14
-52 -10 -25 3 -55 1 -66 -5 -22 -12 -22 -14 -2 36 4 10 0 15 -11 15 -14 0 -13
4 6 20 17 14 20 19 9 20 -9 0 -27 -13 -42 -30 -18 -21 -22 -30 -12 -30 12 0
12 -4 4 -20 -6 -10 -9 -25 -8 -32 2 -9 -14 -13 -57 -14 -67 -1 -117 -11 -125
-25 -3 -4 -17 -10 -30 -11 -22 -3 -25 1 -25 27 0 20 -6 31 -17 33 -10 2 -18 9
-18 15 0 8 -3 8 -11 0 -11 -11 -49 -6 -49 6 0 3 7 15 15 25 8 11 15 28 15 39
0 16 -6 18 -46 14 -35 -3 -47 0 -54 14 -13 24 12 46 29 25 16 -19 82 -19 74 0
-6 17 -15 18 -30 3 -12 -12 -33 -4 -33 12 0 16 67 10 74 -6 8 -22 18 -19 56
15 31 28 89 43 75 20z m115 -6 c0 -9 -7 -14 -17 -12 -25 5 -28 28 -4 28 12 0
21 -6 21 -16z m270 5 c0 -5 -4 -8 -9 -4 -5 3 -12 1 -16 -5 -4 -6 -11 -7 -17
-4 -6 4 -5 10 3 15 19 12 39 11 39 -2z m-207 -16 c-7 -2 -19 -2 -25 0 -7 3 -2
5 12 5 14 0 19 -2 13 -5z m-633 -13 c0 -5 -4 -10 -10 -10 -5 0 -10 5 -10 10 0
6 5 10 10 10 6 0 10 -4 10 -10z m-430 -10 c0 -5 9 -10 20 -10 11 0 20 -7 20
-15 0 -8 -5 -15 -10 -15 -18 0 -60 32 -54 41 7 12 24 11 24 -1z m110 -9 c0 -5
-7 -11 -15 -15 -9 -3 -15 0 -15 9 0 8 7 15 15 15 8 0 15 -4 15 -9z m2470 -11
c23 -12 40 -28 41 -38 0 -13 3 -11 9 6 13 32 30 27 30 -8 0 -31 -14 -37 -72
-32 -11 1 -18 -5 -18 -17 0 -21 -23 -44 -33 -34 -4 3 -7 15 -7 25 0 10 -7 18
-15 18 -8 0 -15 7 -15 15 0 8 7 15 15 15 18 0 18 5 5 31 -11 20 -6 39 11 39 5
0 28 -9 49 -20z m450 11 c0 -5 3 -18 7 -28 6 -16 5 -16 -10 -4 -19 15 -23 41
-7 41 6 0 10 -4 10 -9z m-8710 -26 c0 -8 -2 -15 -4 -15 -2 0 -6 7 -10 15 -3 8
-1 15 4 15 6 0 10 -7 10 -15z m8517 -17 c-3 -8 -6 -5 -6 6 -1 11 2 17 5 13 3
-3 4 -12 1 -19z m-1473 -13 c3 -9 0 -15 -8 -15 -8 0 -16 7 -20 15 -3 9 0 15 8
15 8 0 16 -7 20 -15z m1443 -6 c24 1 40 -35 30 -63 -3 -8 -3 -17 1 -20 7 -8
14 -46 8 -46 -17 0 -35 14 -29 24 4 6 -1 5 -10 -2 -17 -14 -77 -8 -77 8 0 12
-54 19 -61 8 -4 -7 -14 -6 -29 2 -12 6 -27 9 -35 7 -21 -9 -36 13 -20 29 18
19 25 18 26 -3 1 -16 2 -16 6 -2 4 15 19 21 78 31 11 2 23 10 27 19 4 11 15
15 35 12 15 -2 38 -4 50 -4z m228 -13 l23 -25 -22 2 c-22 1 -36 14 -36 35 0
18 10 15 35 -12z m-2345 4 c0 -5 -4 -10 -10 -10 -5 0 -10 5 -10 10 0 6 5 10
10 10 6 0 10 -4 10 -10z m2387 -52 c-3 -8 -6 -5 -6 6 -1 11 2 17 5 13 3 -3 4
-12 1 -19z m30 -58 c12 0 37 -44 187 -324 20 -36 20 -72 2 -79 -17 -7 -28 5
-45 49 -7 18 -24 41 -37 53 -14 12 -38 50 -54 84 -16 34 -38 78 -48 97 -43 78
-72 143 -72 163 1 20 3 19 28 -11 15 -18 32 -32 39 -32z m-3 25 c3 -8 1 -15
-4 -15 -6 0 -10 7 -10 15 0 8 2 15 4 15 2 0 6 -7 10 -15z m-4498 -125 c21 0
62 -50 68 -83 3 -18 2 -66 -3 -107 -4 -41 -7 -77 -5 -79 4 -4 26 1 154 39 67
19 204 45 300 56 30 4 60 11 67 16 7 5 16 7 21 4 5 -3 56 -1 113 4 197 18 294
20 389 10 52 -6 158 -12 235 -14 171 -5 322 -27 418 -61 40 -15 113 -37 162
-51 155 -42 277 -85 348 -122 l68 -35 40 44 c114 124 205 216 231 232 34 21
83 21 163 3 48 -12 66 -22 92 -53 72 -84 83 -236 33 -458 -5 -22 -14 -69 -20
-105 -7 -36 -16 -76 -21 -90 -5 -14 -13 -52 -19 -85 -5 -33 -16 -90 -25 -127
-8 -38 -21 -96 -29 -130 -7 -35 -26 -108 -41 -163 -37 -137 -62 -266 -80 -419
-17 -143 -18 -141 45 -152 105 -19 342 -96 373 -122 11 -9 14 -24 10 -55 -8
-63 -23 -74 -78 -59 -62 17 -68 16 -55 -7 13 -26 -6 -33 -42 -14 -25 12 -30
11 -48 -7 -11 -11 -27 -20 -36 -20 -20 0 -54 -18 -54 -30 0 -12 84 -28 115
-22 18 3 33 -2 50 -18 15 -14 39 -24 61 -25 32 -2 41 -9 70 -52 18 -28 48 -62
66 -76 97 -75 147 -147 165 -231 6 -33 10 -63 7 -68 -3 -4 4 -8 15 -8 14 0 27
-15 45 -54 14 -30 26 -62 26 -71 0 -9 7 -30 16 -46 8 -17 13 -37 11 -43 -3 -7
3 -26 14 -42 10 -16 19 -35 19 -41 0 -21 -28 -15 -35 7 -7 21 -25 28 -25 9 0
-5 -4 -8 -10 -4 -5 3 -7 11 -4 19 3 7 -7 18 -21 24 -14 6 -25 20 -25 31 0 10
-7 24 -15 31 -8 7 -15 17 -15 23 0 29 -46 127 -60 127 -14 0 -100 82 -178 168
-16 17 -39 32 -50 32 -11 0 -24 4 -27 10 -3 5 -23 14 -43 19 -20 6 -58 28 -83
49 -38 31 -60 41 -120 51 -154 27 -174 34 -177 59 -2 13 4 41 12 63 23 56 20
66 -16 71 -35 6 -203 -16 -254 -33 -17 -5 -38 -7 -47 -3 -9 3 -52 -4 -96 -15
-97 -25 -115 -26 -107 -6 4 10 -1 15 -17 16 l-22 0 23 9 c22 10 31 30 11 30
-6 0 -19 -5 -29 -10 -14 -7 -41 -7 -87 1 -84 14 -136 13 -233 -5 -41 -7 -82
-14 -90 -14 -23 0 -429 -60 -475 -70 -26 -5 -22 -7 30 -15 74 -11 188 -10 365
3 409 29 453 31 462 22 7 -7 2 -12 -13 -17 -62 -18 -229 -108 -268 -143 -37
-34 -42 -44 -37 -69 5 -22 1 -34 -19 -55 -14 -16 -30 -28 -35 -28 -12 0 -24
-84 -16 -115 4 -14 13 -25 21 -25 19 0 58 -21 68 -37 4 -7 14 -13 21 -13 15 0
71 -49 64 -55 -8 -9 -68 20 -68 32 0 7 -10 17 -22 24 -17 9 -20 9 -16 -3 4 -9
-2 -14 -18 -16 -15 -1 -24 4 -24 13 0 8 5 15 10 15 6 0 10 3 10 8 0 10 -60 36
-67 28 -4 -3 -2 -6 4 -6 5 0 9 -20 9 -45 -1 -25 -5 -45 -9 -45 -4 0 -6 -12 -4
-27 3 -22 10 -29 30 -31 15 -2 27 -8 27 -14 0 -6 -12 -8 -31 -4 -22 4 -29 2
-27 -7 3 -6 15 -14 28 -15 13 -2 29 -10 36 -17 11 -11 10 -14 -6 -18 -29 -7
-25 -32 8 -47 17 -8 22 -14 14 -17 -26 -10 -62 19 -62 49 0 26 -2 27 -20 16
-13 -8 -19 -20 -16 -30 2 -10 -1 -18 -8 -18 -18 0 -35 21 -30 35 3 7 1 16 -5
19 -5 4 -12 -2 -15 -11 -7 -25 0 -144 9 -167 6 -14 3 -24 -13 -37 -17 -14 -22
-28 -22 -69 0 -28 -5 -60 -11 -72 -6 -11 -12 -33 -15 -50 -2 -17 -9 -37 -16
-45 -7 -9 -11 -30 -10 -47 2 -23 0 -27 -7 -16 -13 20 -18 13 -31 -45 -7 -28
-15 -62 -19 -76 -12 -39 3 -126 27 -159 12 -16 22 -34 22 -40 0 -18 83 -47
155 -54 49 -4 75 -12 90 -26 14 -13 35 -20 59 -20 32 0 36 -2 27 -14 -10 -12
-8 -14 11 -9 18 4 20 2 8 -6 -8 -5 -12 -13 -8 -16 3 -4 22 17 42 46 20 30 31
56 26 59 -11 7 1 24 37 53 20 17 22 18 41 1 18 -15 19 -19 5 -32 -9 -9 -12
-24 -9 -38 5 -17 2 -24 -9 -24 -8 0 -15 -9 -15 -21 0 -11 4 -17 10 -14 5 3 18
1 28 -4 12 -7 22 -7 29 0 6 6 16 2 28 -11 10 -11 15 -23 10 -28 -4 -4 -10 -1
-12 6 -6 17 -23 15 -47 -5 -12 -10 -18 -14 -14 -9 11 14 -43 39 -56 26 -7 -7
-6 -10 2 -10 14 0 52 -40 52 -56 0 -6 -10 -14 -22 -17 -25 -7 -61 10 -53 24 4
5 11 7 16 4 5 -4 9 -2 9 3 0 9 -52 32 -73 32 -5 0 -6 -7 -3 -15 3 -9 -1 -18
-9 -21 -12 -5 -12 -11 6 -35 11 -16 27 -29 35 -29 8 0 14 -5 14 -11 0 -5 5 -7
12 -3 7 4 8 3 4 -4 -4 -7 -16 -12 -27 -12 -13 0 -19 -6 -17 -17 2 -13 -4 -18
-22 -18 -28 0 -43 -23 -28 -42 6 -7 19 -13 29 -13 20 0 35 -17 24 -28 -3 -4
-20 1 -37 11 -34 19 -56 14 -36 -10 10 -12 8 -18 -12 -34 -14 -10 -34 -16 -45
-14 -11 3 -14 2 -7 -1 18 -8 16 -65 -2 -58 -14 5 -18 -2 -30 -56 -4 -21 0 -28
24 -39 23 -10 30 -19 29 -39 0 -15 -3 -21 -6 -14 -8 19 -22 14 -16 -7 7 -29
-14 -34 -39 -9 -19 19 -23 20 -26 6 -2 -9 -12 -18 -23 -21 -15 -4 -20 -12 -17
-29 2 -17 -2 -24 -19 -26 -13 -2 -23 -9 -23 -17 0 -7 -7 -15 -15 -19 -27 -10
-17 -41 18 -54 17 -6 37 -22 42 -34 6 -13 22 -29 36 -35 28 -14 57 -43 42 -43
-5 0 -17 6 -28 14 -14 9 -27 11 -45 4 l-24 -9 29 -24 c17 -13 27 -27 23 -31
-4 -4 -14 -1 -23 6 -13 10 -19 10 -34 -4 -10 -9 -25 -14 -35 -10 -9 3 -16 1
-16 -5 0 -7 7 -14 15 -17 22 -9 18 -24 -5 -24 -25 0 -26 -15 -2 -30 14 -9 13
-10 -10 -6 -17 4 -32 0 -42 -10 -22 -22 -20 -23 17 -17 23 3 46 -1 73 -16 47
-24 37 -26 -30 -6 -27 8 -51 13 -53 11 -7 -7 17 -46 28 -46 15 0 43 -30 35
-37 -3 -3 -17 -1 -31 5 -33 15 -35 15 -35 -3 0 -7 8 -19 18 -24 14 -9 13 -10
-10 -11 -21 0 -28 5 -28 20 0 19 -19 27 -33 14 -6 -7 41 -54 54 -54 5 0 9 -7
9 -15 0 -8 -9 -15 -20 -15 -22 0 -25 -28 -5 -42 6 -4 2 -8 -7 -8 -10 0 -18 -6
-18 -14 0 -8 -9 -18 -21 -21 -11 -4 -25 -20 -31 -36 -9 -27 -39 -46 -56 -35
-10 6 -74 -15 -93 -31 -8 -6 -38 -16 -67 -22 -28 -6 -69 -21 -90 -34 -42 -27
-74 -41 -84 -39 -5 1 -8 -2 -8 -7 0 -11 -26 -22 -70 -28 -19 -3 -39 -9 -44
-13 -5 -5 -19 -5 -31 0 -25 10 -45 -5 -49 -36 -3 -22 -17 -29 -81 -42 -27 -5
-75 -16 -105 -25 -30 -8 -74 -18 -98 -22 -27 -4 -46 -14 -53 -27 -8 -15 -17
-19 -39 -14 -17 3 -55 -3 -91 -15 -34 -11 -72 -18 -85 -15 -12 3 -25 2 -28 -3
-6 -9 -65 -25 -80 -22 -6 1 -20 -3 -33 -10 -17 -9 -26 -9 -37 0 -10 8 -16 9
-21 1 -10 -16 -91 -12 -105 5 -11 14 -14 13 -25 -2 -7 -9 -19 -14 -28 -10 -16
6 -57 -26 -57 -45 0 -5 -11 -14 -25 -20 -22 -10 -28 -8 -45 10 -12 13 -38 23
-67 27 -27 3 -55 7 -63 8 -8 1 -20 13 -27 27 -9 18 -13 20 -13 8 0 -11 -8 -18
-20 -18 -13 0 -20 7 -20 20 0 15 -7 20 -26 20 -45 0 -118 22 -141 43 -14 12
-38 20 -60 21 -33 1 -38 4 -35 22 2 18 -7 24 -66 43 -38 12 -77 30 -87 41 -16
18 -16 20 2 44 20 29 58 34 89 12 11 -8 38 -18 60 -21 21 -4 44 -12 51 -17 15
-12 26 7 18 32 -8 27 25 28 42 1 12 -19 57 -33 80 -24 10 4 8 9 -8 17 -27 14
-30 30 -6 34 23 5 57 -25 50 -44 -6 -17 1 -18 28 -4 11 6 19 7 19 1 0 -5 11
-12 25 -15 20 -5 25 -13 25 -36 0 -16 -5 -32 -11 -36 -8 -5 -10 1 -6 18 8 31
-21 49 -35 23 -11 -19 -28 -20 -28 0 0 23 -18 18 -22 -7 -2 -14 -15 -26 -38
-34 -19 -7 -27 -13 -17 -13 23 -1 48 -26 45 -43 -2 -7 4 -13 12 -13 8 0 26 -9
38 -21 30 -26 109 -29 104 -3 -1 10 16 23 55 39 71 28 81 36 54 45 -24 7 -28
30 -7 38 8 3 19 15 25 25 9 18 8 19 -11 14 -18 -4 -20 -2 -14 14 18 45 17 84
-4 154 -20 66 -21 79 -10 137 9 47 18 68 35 79 12 8 27 26 34 40 11 25 85 65
147 78 27 6 36 1 78 -41 27 -26 54 -61 61 -78 32 -73 105 -119 297 -187 41
-15 59 -41 67 -102 9 -67 28 -85 89 -86 51 0 53 12 12 55 -28 28 -31 40 -39
125 -8 86 -11 96 -37 118 -16 13 -48 32 -71 42 -37 16 -43 24 -43 49 0 21 -6
32 -21 36 -23 8 -39 42 -39 85 0 29 -44 158 -76 219 -12 25 -14 36 -6 39 15 5
16 32 2 32 -5 0 -10 7 -10 15 0 12 13 15 59 15 33 0 63 5 66 10 10 17 32 12
82 -19 27 -16 80 -36 118 -45 69 -17 71 -17 135 7 36 14 99 39 140 57 62 26
85 31 132 28 35 -3 64 -11 76 -21 27 -24 62 -22 62 3 0 31 -27 78 -53 92 -14
8 -83 14 -192 16 -180 5 -216 13 -266 63 -11 11 -33 22 -49 26 -17 3 -30 11
-30 18 0 20 -93 75 -157 94 -53 16 -58 20 -66 54 -7 28 -5 48 7 77 9 22 16 54
16 71 0 25 15 48 70 109 63 69 78 80 138 101 79 28 161 101 193 174 17 39 29
50 77 72 55 25 59 25 99 11 39 -14 44 -14 58 2 15 16 15 19 -1 34 -9 9 -32 23
-52 32 -33 13 -44 13 -107 -1 -55 -12 -82 -25 -120 -56 -63 -52 -82 -62 -108
-55 -14 3 -29 -2 -44 -15 -16 -16 -37 -22 -85 -24 -101 -4 -160 -29 -228 -96
-32 -33 -62 -59 -66 -59 -4 0 -16 8 -26 17 -19 17 -21 17 -50 0 -29 -16 -30
-16 -35 2 -3 11 -11 22 -19 25 -8 3 -38 24 -68 46 -51 39 -53 43 -59 97 -4 36
-14 68 -28 87 -28 38 -27 90 5 166 46 110 54 146 45 202 -10 61 -27 108 -40
108 -5 0 -14 -10 -20 -22 -14 -31 -66 -125 -107 -192 -18 -30 -51 -69 -72 -86
-22 -18 -40 -39 -40 -49 0 -9 -5 -22 -11 -28 -15 -15 -31 -246 -17 -254 20
-13 0 -39 -30 -39 -15 0 -47 -9 -70 -20 -22 -11 -47 -20 -53 -20 -15 0 -72 18
-114 36 -45 19 -95 95 -125 189 -7 22 -19 48 -27 57 -8 9 -22 32 -31 50 -21
41 -59 60 -131 64 -48 3 -60 7 -82 33 -14 17 -31 31 -37 31 -41 0 30 -125 116
-205 40 -36 51 -79 51 -195 -1 -69 4 -96 23 -140 27 -59 86 -120 119 -120 11
0 22 -6 25 -13 6 -16 -57 -158 -77 -173 -17 -13 -98 -34 -133 -34 -32 0 -77
20 -70 31 3 5 -1 6 -9 3 -8 -3 -33 5 -57 17 -42 22 -43 22 -77 3 -20 -10 -37
-24 -40 -31 -3 -7 -23 -32 -44 -55 -21 -24 -39 -47 -39 -51 0 -5 -9 -6 -20 -2
-20 6 -70 -20 -70 -37 0 -5 14 -22 31 -38 29 -26 31 -31 20 -61 -14 -41 -14
-132 0 -183 8 -29 8 -41 -1 -46 -7 -4 -10 -18 -6 -31 3 -13 3 -18 0 -11 -11
24 -24 11 -24 -25 0 -64 12 -113 26 -113 19 0 19 -66 0 -73 -8 -3 -14 -20 -14
-42 0 -27 4 -35 14 -31 9 3 15 -6 19 -32 3 -20 10 -63 16 -95 6 -33 8 -61 5
-64 -2 -3 -8 11 -11 31 -7 37 -24 59 -21 28 0 -9 -6 -17 -13 -17 -11 0 -16 14
-18 45 -1 25 -6 56 -9 70 -4 14 -8 52 -10 85 -1 33 -5 103 -9 155 -4 52 -8
145 -10 205 -1 61 -6 126 -10 145 -5 27 -4 32 5 20 9 -13 11 -12 6 5 -19 77
-27 168 -17 175 7 4 10 17 6 32 -4 15 -2 29 5 33 8 5 6 12 -5 25 -14 16 -18
45 -20 162 -2 79 -9 204 -14 278 -7 90 -8 155 -1 195 5 33 10 78 10 100 0 23
5 46 11 52 7 7 12 61 13 140 1 104 5 133 19 153 9 13 17 34 17 45 0 11 9 35
20 53 25 40 28 71 5 52 -28 -24 -25 -4 9 61 22 42 32 70 26 79 -4 7 -6 18 -4
25 3 6 -4 20 -16 30 -11 10 -20 26 -20 36 0 14 6 12 30 -12 39 -39 55 -30 34
19 -41 91 -81 280 -90 414 -4 70 -10 98 -20 102 -8 3 -14 14 -14 25 0 22 31
81 43 81 4 0 7 7 7 15 0 13 98 101 137 124 33 18 -20 56 -151 107 -230 90
-244 93 -410 88 -123 -3 -162 -8 -234 -30 -99 -31 -110 -37 -114 -67 -2 -15
-10 -22 -25 -22 -12 0 -25 -4 -29 -8 -14 -14 -26 -7 -21 13 3 10 0 21 -6 23
-18 6 1 36 35 57 18 11 92 43 163 71 72 28 137 56 145 63 8 7 59 20 113 29 54
9 107 23 119 32 52 36 328 1 470 -59 21 -9 43 -16 51 -16 8 0 21 32 34 88 12
48 35 123 51 167 17 44 44 117 61 163 19 51 29 92 25 107 -4 17 0 26 15 35 12
6 19 15 16 20 -3 6 5 29 19 52 13 24 49 90 78 148 161 313 284 499 441 669
105 113 171 169 246 207 55 27 132 45 166 38 11 -2 25 -4 31 -4z m-2476 -221
c0 -5 8 -9 18 -9 44 0 191 -153 211 -220 15 -51 14 -164 -3 -203 -16 -39 -58
-71 -74 -55 -5 5 -8 29 -6 51 4 38 3 40 -7 17 -10 -22 -13 -22 -16 -7 -3 10 3
27 13 38 14 16 16 30 10 96 -11 125 -22 155 -74 206 -26 25 -64 56 -85 70 -21
15 -32 27 -25 30 17 5 38 -3 38 -14z m7520 -185 c0 -8 -4 -12 -10 -9 -5 3 -10
13 -10 21 0 8 5 12 10 9 6 -3 10 -13 10 -21z m-606 -101 c-6 -24 -7 -24 -30
11 -27 39 -30 56 -12 74 17 17 50 -51 42 -85z m603 12 c-2 -34 -6 -45 -17 -43
-19 4 -26 64 -10 84 19 22 29 7 27 -41z m-9 -67 c15 -15 16 -75 1 -80 -7 -2
-7 -12 0 -31 9 -23 8 -27 -7 -27 -39 1 -47 15 -30 58 10 26 12 45 6 56 -16 29
7 47 30 24z m1972 -78 c0 -5 -10 -10 -22 -10 -19 0 -20 2 -8 10 19 13 30 13
30 0z m-10816 -46 c3 -8 2 -12 -4 -9 -6 3 -10 10 -10 16 0 14 7 11 14 -7z
m8828 -27 c20 -16 24 -39 15 -97 -3 -25 -9 -90 -13 -145 -3 -55 -8 -101 -9
-103 -2 -2 -12 2 -23 9 -16 10 -20 23 -20 66 0 30 5 53 11 53 6 0 7 3 4 6 -3
4 -2 15 4 25 7 15 6 21 -5 25 -11 4 -13 12 -5 31 5 13 9 51 9 84 0 61 4 67 32
46z m-752 -27 c0 -5 -4 -10 -10 -10 -5 0 -10 5 -10 10 0 6 5 10 10 10 6 0 10
-4 10 -10z m2565 -30 c-3 -5 -11 -10 -16 -10 -6 0 -7 5 -4 10 3 6 11 10 16 10
6 0 7 -4 4 -10z m-105 -35 c0 -8 -4 -15 -10 -15 -5 0 -10 7 -10 15 0 8 5 15
10 15 6 0 10 -7 10 -15z m-10435 -15 c3 -5 -1 -10 -9 -10 -9 0 -16 5 -16 10 0
6 4 10 9 10 6 0 13 -4 16 -10z m1315 -7 c0 -10 7 -27 15 -37 18 -24 20 -77 3
-94 -21 -21 -47 -13 -83 26 -42 45 -44 74 -7 101 34 26 72 28 72 4z m-1263
-141 c26 -47 60 -98 75 -113 16 -15 28 -33 28 -41 0 -7 -14 3 -31 22 -43 50
-49 58 -49 66 0 4 -11 21 -23 38 -32 42 -77 124 -77 139 1 17 22 -14 77 -111z
m10318 48 c3 -5 2 -10 -4 -10 -5 0 -13 5 -16 10 -3 6 -2 10 4 10 5 0 13 -4 16
-10z m-1655 -171 c0 -6 -7 -8 -16 -5 -9 3 -18 6 -20 6 -2 0 -4 7 -4 15 0 13 4
14 20 5 11 -6 20 -16 20 -21z m-292 -32 c5 -24 -15 -21 -21 4 -3 13 -1 19 6
16 7 -2 13 -11 15 -20z m-7214 -35 c5 -9 -21 -192 -29 -200 -3 -3 -5 3 -5 14
0 15 -2 16 -9 5 -8 -12 -12 -10 -22 12 -9 21 -9 42 2 102 12 67 15 75 35 75
13 0 25 -4 28 -8z m7306 -147 c0 -8 4 -23 9 -33 12 -22 51 -156 51 -174 -1
-21 -38 59 -65 140 -29 86 -29 82 -10 82 8 0 15 -7 15 -15z m-7343 -137 c-2
-13 -4 -3 -4 22 0 25 2 35 4 23 2 -13 2 -33 0 -45z m7621 22 c17 -56 15 -103
-6 -131 -10 -13 -22 -32 -25 -42 -8 -22 -30 -12 -24 11 2 10 -4 31 -14 47 -16
27 -16 33 -4 55 8 14 23 42 32 62 10 21 20 38 23 38 3 0 11 -18 18 -40z
m-7644 -17 c-10 -40 -14 -41 -14 -5 0 18 5 32 10 32 6 0 8 -11 4 -27z m-616
-22 c3 -8 -1 -12 -9 -9 -7 2 -15 10 -17 17 -3 8 1 12 9 9 7 -2 15 -10 17 -17z
m16 -61 c-6 -6 -15 -6 -24 0 -13 9 -13 11 0 20 18 11 39 -5 24 -20z m583 -77
c-2 -16 -4 -5 -4 22 0 28 2 40 4 28 2 -13 2 -35 0 -50z m7556 -40 c6 -13 19
-23 29 -23 19 0 25 -26 7 -32 -7 -2 -7 -11 1 -28 7 -17 8 -34 2 -50 -10 -27
-3 -36 -74 94 -19 35 -23 66 -8 66 6 0 10 10 11 23 0 21 1 21 11 -3 6 -14 15
-35 21 -47z m-8136 -40 c-8 -7 -66 55 -67 72 0 5 17 -7 37 -27 20 -21 34 -41
30 -45z m93 52 c7 -8 8 -15 2 -15 -5 0 -15 7 -22 15 -7 8 -8 15 -2 15 5 0 15
-7 22 -15z m-49 -102 c42 -48 82 -103 77 -108 -2 -2 -30 27 -61 65 -31 39 -53
70 -49 70 5 0 20 -12 33 -27z m552 -47 c3 -8 30 -33 59 -56 29 -24 88 -76 132
-117 l78 -76 -11 -38 c-8 -28 -16 -37 -27 -32 -9 3 -21 -3 -31 -16 -13 -19
-21 -21 -57 -16 -22 4 -45 11 -50 16 -6 5 -18 9 -28 9 -21 0 -42 35 -34 57 7
18 -23 85 -35 77 -5 -3 -9 1 -10 8 0 10 -2 10 -6 1 -12 -31 -23 -9 -19 35 3
26 8 73 11 105 6 55 17 72 28 43z m532 -166 c-5 -8 -10 -8 -20 0 -9 8 -15 8
-20 0 -3 -5 -11 -10 -16 -10 -16 0 1 21 25 30 24 9 42 -2 31 -20z m-95 -10 c0
-5 -4 -10 -10 -10 -5 0 -10 5 -10 10 0 6 5 10 10 10 6 0 10 -4 10 -10z m-94
-34 c10 -8 15 -18 11 -22 -4 -4 -17 2 -29 14 -25 25 -13 30 18 8z m164 -11 c0
-8 -4 -15 -10 -15 -5 0 -10 7 -10 15 0 8 5 15 10 15 6 0 10 -7 10 -15z m-50
-15 c9 0 11 -3 4 -10 -7 -7 -20 -5 -40 6 -27 15 -27 15 -4 10 14 -3 32 -6 40
-6z m90 0 c0 -5 -4 -10 -10 -10 -5 0 -10 5 -10 10 0 6 5 10 10 10 6 0 10 -4
10 -10z m-570 -25 c10 -13 9 -15 -9 -15 -12 0 -21 6 -21 15 0 8 4 15 9 15 5 0
14 -7 21 -15z m449 -29 c9 -10 8 -15 -4 -20 -8 -3 -15 -1 -15 3 0 5 -12 14
-27 19 l-28 10 31 1 c17 1 37 -5 43 -13z m111 -22 c0 -8 -6 -11 -15 -8 -8 4
-15 12 -15 20 0 8 6 11 15 8 8 -4 15 -12 15 -20z m-180 1 c7 -9 10 -18 7 -22
-8 -7 -37 15 -37 28 0 14 16 11 30 -6z m305 -19 c11 -7 35 -17 53 -21 19 -4
47 -22 64 -41 20 -22 34 -30 39 -23 5 8 13 7 30 -2 13 -7 30 -14 37 -15 18 -3
27 -13 19 -21 -4 -3 -19 0 -34 8 -46 23 -49 23 -20 0 20 -17 26 -29 23 -48 -4
-18 -1 -23 9 -19 8 3 19 -3 25 -14 8 -14 6 -23 -7 -36 -13 -13 -14 -19 -5 -22
6 -2 12 -8 12 -14 0 -7 -17 -9 -46 -5 -33 3 -54 13 -71 31 -13 14 -28 26 -32
26 -5 0 -19 11 -32 23 -13 13 -37 32 -54 41 -27 16 -28 16 -7 1 12 -10 22 -26
22 -36 0 -18 -1 -19 -25 -3 -15 10 -25 26 -25 39 0 36 -10 54 -27 48 -8 -3
-19 0 -24 8 -7 12 -9 12 -9 0 0 -11 -4 -9 -15 5 -21 28 -18 41 10 46 40 8 73
-2 90 -28 l15 -24 -32 20 c-50 30 -57 24 -13 -12 50 -42 99 -68 111 -60 5 4
14 21 20 37 10 28 8 33 -14 50 -22 16 -25 17 -19 2 10 -28 -43 -10 -74 24 -14
16 -34 29 -43 29 -9 0 -14 5 -11 10 9 14 37 12 60 -4z m-180 -6 c3 -5 1 -10
-4 -10 -6 0 -11 5 -11 10 0 6 2 10 4 10 3 0 8 -4 11 -10z m-40 -10 c3 -5 -1
-10 -9 -10 -9 0 -16 5 -16 10 0 6 4 10 9 10 6 0 13 -4 16 -10z m140 -10 c3 -5
1 -10 -4 -10 -6 0 -11 5 -11 10 0 6 2 10 4 10 3 0 8 -4 11 -10z m-424 -10 c23
-13 26 -43 3 -38 -21 4 -52 48 -35 48 7 0 21 -5 32 -10z m753 -15 c21 -32 20
-35 -8 -33 -24 2 -41 31 -30 50 9 14 21 9 38 -17z m-7594 -25 c0 -5 -4 -10 -9
-10 -6 0 -13 5 -16 10 -3 6 1 10 9 10 9 0 16 -4 16 -10z m6810 0 c0 -5 -4 -10
-10 -10 -5 0 -10 5 -10 10 0 6 5 10 10 10 6 0 10 -4 10 -10z m356 -4 c10 -8
16 -17 12 -21 -8 -8 -68 16 -68 27 0 13 35 9 56 -6z m-321 -26 c8 -13 -5 -13
-25 0 -13 8 -13 10 2 10 9 0 20 -4 23 -10z m155 6 c0 -11 -19 -15 -25 -6 -3 5
1 10 9 10 9 0 16 -2 16 -4z m90 -14 c20 -24 24 -62 5 -62 -19 0 -30 20 -16 29
7 5 5 14 -9 29 -14 15 -16 22 -8 22 8 0 20 -8 28 -18z m324 -11 c4 -5 -3 -7
-13 -4 -11 3 -22 11 -25 19 -4 11 -2 12 14 4 10 -5 21 -14 24 -19z m-784 -23
c0 -37 6 -48 47 -90 56 -56 52 -62 -7 -13 -23 19 -49 35 -57 35 -12 0 -14 7
-9 31 3 17 6 42 6 55 0 13 5 24 10 24 6 0 10 -19 10 -42z m380 -9 c0 -10 -2
-19 -4 -19 -11 0 -36 33 -31 40 9 15 35 -1 35 -21z m150 16 c7 -9 10 -18 7
-21 -7 -8 -47 14 -47 26 0 15 26 12 40 -5z m7770 -6 c30 -12 63 -25 73 -31 10
-5 23 -6 29 -2 7 4 8 3 4 -4 -4 -7 -21 -10 -39 -8 -39 5 -122 40 -131 55 -10
16 1 14 64 -10z m-7690 -31 c8 -13 6 -15 -10 -11 -14 4 -20 14 -20 32 0 27 5
24 30 -21z m-120 -23 c10 -12 10 -15 -4 -15 -9 0 -16 7 -16 15 0 8 2 15 4 15
2 0 9 -7 16 -15z m670 5 c0 -5 -4 -10 -10 -10 -5 0 -10 5 -10 10 0 6 5 10 10
10 6 0 10 -4 10 -10z m7350 -10 c0 -5 -4 -10 -10 -10 -5 0 -10 5 -10 10 0 6 5
10 10 10 6 0 10 -4 10 -10z m-7767 -22 c4 -10 8 -9 16 2 8 12 12 12 29 -3 10
-9 24 -17 30 -17 7 0 12 -4 12 -9 0 -5 15 -14 33 -21 56 -21 77 -33 77 -44 0
-6 -5 -5 -12 2 -23 23 -92 4 -82 -23 4 -9 9 -14 12 -11 2 3 17 -1 32 -9 21
-11 30 -11 40 -2 10 9 14 9 17 0 8 -23 3 -27 -32 -24 -37 3 -47 -13 -23 -37 8
-8 8 -12 1 -12 -6 0 -14 8 -17 17 -5 12 -10 13 -17 6 -8 -8 -5 -18 10 -34 31
-33 28 -55 -4 -32 -13 10 -25 21 -25 26 0 4 -7 7 -15 7 -8 0 -15 4 -15 9 0 6
-9 9 -20 8 -11 -1 -20 -5 -20 -9 0 -4 -10 -8 -22 -8 -12 0 -18 3 -15 7 4 3 2
12 -4 19 -5 7 -8 25 -6 41 3 25 8 28 43 31 29 2 35 0 24 -8 -13 -8 -13 -10 3
-10 9 0 17 -5 17 -10 0 -7 -13 -8 -35 -4 -27 5 -35 3 -35 -9 0 -10 12 -15 46
-15 l46 -1 -7 38 c-5 33 -3 41 15 54 21 14 21 15 -7 20 -15 3 -29 1 -31 -4 -2
-5 -10 -9 -18 -9 -8 0 -14 -4 -14 -10 0 -11 -46 -12 -73 -1 -17 6 -17 8 -4 20
9 7 13 19 10 27 -3 8 1 14 10 14 10 0 13 7 10 20 -6 22 12 28 20 8z m-85 -31
c2 -10 -3 -17 -12 -17 -9 0 -16 2 -16 4 0 2 -3 12 -6 21 -5 13 -2 16 12 13 10
-2 20 -11 22 -21z m7620 11 c-3 -7 -13 -15 -23 -17 -10 -2 -25 -10 -34 -18
-22 -23 -28 3 -5 28 19 21 68 27 62 7z m-7828 -7 c0 -5 8 -12 18 -14 11 -3 7
-5 -10 -6 -27 -1 -43 11 -31 23 9 9 23 7 23 -3z m66 -6 c10 -8 14 -15 8 -15
-5 0 -19 7 -30 15 -10 8 -14 15 -8 15 5 0 19 -7 30 -15z m-132 -11 c4 -9 4
-19 2 -21 -8 -8 -26 8 -26 23 0 19 16 18 24 -2z m-248 -46 l19 -23 -25 20
c-14 11 -27 21 -29 22 -2 2 0 3 6 3 5 0 18 -10 29 -22z m8088 -30 c-8 -62 -52
-142 -70 -127 -17 14 -2 74 18 73 17 -2 31 43 17 52 -5 3 -9 -1 -9 -8 0 -9 -3
-9 -10 2 -17 26 -11 37 23 48 17 5 33 10 35 11 1 1 0 -23 -4 -51z m-7244 6 c0
-2 -7 -4 -15 -4 -8 0 -15 4 -15 10 0 5 7 7 15 4 8 -4 15 -8 15 -10z m-279
-116 c14 -26 1 -38 -16 -15 -10 13 -14 15 -18 5 -3 -9 -11 -6 -28 11 -24 23
-24 23 -1 12 18 -10 22 -9 22 3 0 20 27 10 41 -16z m269 -20 c0 -14 -18 -9
-24 8 -11 28 -6 39 9 20 8 -11 15 -23 15 -28z m-7385 -18 c3 -5 -1 -10 -9 -10
-9 0 -16 5 -16 10 0 6 4 10 9 10 6 0 13 -4 16 -10z m7223 3 c-10 -2 -15 -10
-11 -19 7 -18 -21 -19 -36 -1 -14 18 -9 22 31 24 18 0 25 -1 16 -4z m7360 -39
c2 -19 -3 -36 -12 -44 -26 -20 -20 -50 9 -50 16 0 25 -6 25 -15 0 -11 -8 -15
-27 -13 -19 2 -28 -2 -29 -12 -2 -32 -6 -34 -15 -11 -6 16 -6 28 2 37 6 8 9
20 6 28 -3 8 1 29 9 45 12 24 13 35 4 52 -10 18 -9 20 7 17 12 -2 19 -14 21
-34z m-7430 -45 c-6 -17 -48 25 -48 48 0 14 5 13 26 -9 15 -14 24 -32 22 -39z
m-68 41 c0 -5 -4 -10 -10 -10 -5 0 -10 5 -10 10 0 6 5 10 10 10 6 0 10 -4 10
-10z m216 -2 c5 -8 0 -9 -14 -6 -12 4 -22 3 -22 -2 0 -4 9 -10 21 -13 12 -3
18 -10 15 -15 -4 -6 -21 -6 -48 1 -51 12 -52 13 -43 27 5 8 11 8 20 0 9 -7 16
-6 25 5 15 18 36 20 46 3z m169 -8 c3 -5 1 -10 -4 -10 -6 0 -11 5 -11 10 0 6
2 10 4 10 3 0 8 -4 11 -10z m-7470 -30 c3 -5 1 -10 -4 -10 -6 0 -11 5 -11 10
0 6 2 10 4 10 3 0 8 -4 11 -10z m6915 -10 c0 -24 -16 -26 -38 -3 -16 16 -16
16 1 10 9 -3 17 -2 17 3 0 6 5 10 10 10 6 0 10 -9 10 -20z m435 10 c3 -5 -1
-10 -10 -10 -9 0 -13 5 -10 10 3 6 8 10 10 10 2 0 7 -4 10 -10z m85 -10 c0 -5
-7 -7 -15 -4 -8 4 -15 8 -15 10 0 2 7 4 15 4 8 0 15 -4 15 -10z m-232 -18 c3
-9 -2 -13 -14 -10 -9 1 -19 9 -22 16 -3 9 2 13 14 10 9 -1 19 -9 22 -16z m289
12 c-3 -3 -12 -4 -19 -1 -8 3 -5 6 6 6 11 1 17 -2 13 -5z m-181 -24 c13 0 24
-8 27 -20 7 -25 -7 -34 -23 -15 -7 8 -18 15 -24 15 -20 0 -39 18 -31 30 5 8
10 9 18 1 6 -6 21 -11 33 -11z m121 -30 c5 -18 7 -19 17 -5 10 14 16 14 41 4
l30 -13 -30 -4 c-30 -4 -61 -22 -37 -22 21 0 13 -19 -10 -22 -13 -2 -22 -9
-20 -16 1 -6 -4 -12 -10 -12 -7 0 1 -8 19 -16 33 -16 52 -44 30 -44 -7 0 -19
6 -26 13 -10 10 -11 8 -5 -6 6 -17 5 -18 -15 -6 -12 8 -19 20 -16 27 2 7 -3
16 -11 19 -15 5 -15 7 0 15 23 13 20 27 -7 33 -13 4 -23 14 -23 24 0 16 3 16
25 5 31 -17 39 -10 18 14 -22 24 -21 32 4 32 13 0 23 -8 26 -20z m-497 -32 c0
-14 -19 1 -31 25 -12 22 -12 22 10 3 11 -11 21 -23 21 -28z m345 12 c3 -6 -6
-15 -21 -20 -22 -9 -31 -8 -43 6 -15 15 -14 16 7 11 12 -3 22 -1 22 4 0 12 27
11 35 -1z m274 -17 c-8 -9 -16 -10 -22 -4 -13 13 0 31 19 24 11 -4 12 -8 3
-20z m-7434 1 c25 -17 33 -34 15 -34 -12 0 -50 32 -50 42 0 12 8 10 35 -8z
m10746 -2 c18 -17 18 -53 0 -52 -12 1 -42 50 -36 60 9 14 13 13 36 -8z m-3527
-18 c15 -14 26 -27 23 -31 -3 -3 -16 4 -28 16 -13 12 -26 21 -31 21 -4 0 -8 5
-8 10 0 16 13 11 44 -16z m256 11 c11 -13 10 -14 -4 -9 -9 3 -16 10 -16 15 0
13 6 11 20 -6z m-481 -10 c9 -8 27 -24 41 -34 14 -11 22 -23 17 -27 -4 -4 -20
5 -35 19 -16 15 -33 27 -40 27 -7 0 -12 7 -12 15 0 19 9 19 29 0z m3713 -37
c26 -28 48 -58 48 -66 0 -12 3 -12 15 -2 17 14 19 7 5 -20 -7 -13 -7 -21 0
-25 5 -3 10 -14 10 -24 0 -10 9 -26 20 -36 25 -23 11 -42 -18 -26 -12 6 -23 7
-26 2 -3 -5 1 -11 9 -15 27 -10 17 -29 -12 -22 -43 11 -71 56 -35 56 16 1 16
1 0 11 -26 15 -22 30 6 23 22 -5 25 -3 22 22 -2 17 -12 32 -25 38 -12 5 -21
16 -20 25 3 36 -2 50 -20 56 -23 7 -57 55 -40 55 7 0 34 -23 61 -52z m-3842 4
c-12 -2 -27 2 -34 9 -8 9 -8 10 1 5 6 -3 15 -2 18 4 5 8 12 7 23 -2 14 -12 13
-13 -8 -16z m560 24 c0 -3 -4 -8 -10 -11 -5 -3 -10 -1 -10 4 0 6 5 11 10 11 6
0 10 -2 10 -4z m3565 -16 c3 -5 2 -10 -4 -10 -5 0 -13 5 -16 10 -3 6 -2 10 4
10 5 0 13 -4 16 -10z m-102 -30 c25 -23 28 -30 15 -30 -20 0 -24 -15 -8 -25
18 -11 10 -23 -19 -27 -17 -2 -29 -1 -28 3 1 4 -2 6 -8 6 -15 -3 -15 -28 1
-34 25 -9 15 -24 -13 -21 -22 2 -29 9 -31 31 -2 16 0 36 4 45 4 10 6 21 5 26
-3 12 28 56 40 56 5 0 24 -13 42 -30z m-4689 -18 c48 -18 113 -78 126 -117 6
-19 9 -54 7 -78 l-5 -44 62 -18 c33 -9 90 -31 126 -47 36 -16 74 -34 85 -39
45 -20 117 -29 238 -29 93 0 129 -3 131 -12 3 -7 7 -38 9 -68 5 -54 5 -55 -9
-23 -17 39 -29 42 -154 46 -66 1 -95 6 -95 14 0 16 -35 42 -58 43 -22 0 -187
45 -304 82 -90 29 -92 30 -107 71 -9 23 -15 55 -14 72 3 24 -1 31 -19 33 -36
5 -63 53 -62 109 1 26 3 41 6 32 2 -8 19 -21 37 -27z m4600 23 c3 -9 0 -15 -9
-15 -8 0 -15 7 -15 15 0 8 4 15 9 15 5 0 11 -7 15 -15z m-5580 -21 c17 -9 49
-25 71 -37 22 -11 60 -22 85 -23 58 -2 120 -28 120 -50 0 -14 -7 -16 -36 -11
-20 4 -46 15 -58 25 -12 11 -57 26 -106 35 -47 10 -110 24 -140 32 -30 9 -67
13 -82 9 -16 -3 -28 -1 -28 4 0 12 24 22 55 22 13 0 27 5 31 11 7 12 42 5 88
-17z m2020 -9 c6 -16 -3 -19 -28 -9 -22 8 -20 24 3 24 10 0 21 -7 25 -15z
m3321 4 c10 -15 -1 -23 -20 -15 -9 3 -13 10 -10 16 8 13 22 13 30 -1z m-3457
-39 c3 -13 2 -13 -6 -1 -5 7 -20 15 -33 16 -39 4 -40 5 -34 15 8 13 67 -12 73
-30z m112 4 c12 -12 10 -14 -15 -14 -37 0 -60 14 -50 29 8 14 43 5 65 -15z
m-252 -44 c6 0 12 -15 14 -32 4 -28 4 -30 -6 -14 -6 11 -23 34 -38 51 -35 40
-37 53 -3 20 13 -14 28 -25 33 -25z m422 15 c0 -12 -29 -3 -34 10 -4 13 -2 14
14 5 11 -6 20 -13 20 -15z m-82 -12 c4 3 16 1 27 -3 15 -5 7 -9 -32 -14 -36
-5 -53 -13 -56 -24 -3 -10 -5 -7 -6 9 -1 34 17 51 41 38 10 -5 22 -8 26 -6z
m3425 2 c1 -5 -6 -11 -15 -13 -11 -2 -18 3 -18 13 0 17 30 18 33 0z m265 -14
c3 -8 -1 -12 -9 -9 -7 2 -15 10 -17 17 -3 8 1 12 9 9 7 -2 15 -10 17 -17z
m-3786 -6 c0 -5 -5 -11 -11 -13 -6 -2 -11 4 -11 13 0 9 5 15 11 13 6 -2 11 -8
11 -13z m-70 -36 c16 -12 27 -15 26 -9 -2 7 2 14 8 17 7 2 11 -7 10 -26 -2
-38 -15 -51 -27 -28 -6 9 -28 26 -50 37 -21 11 -39 22 -39 23 0 12 49 2 72
-14z m-942 -51 c0 -14 -18 -9 -24 8 -11 28 -6 39 9 20 8 -11 15 -23 15 -28z
m4720 22 c0 -5 -4 -10 -10 -10 -5 0 -10 5 -10 10 0 6 5 10 10 10 6 0 10 -4 10
-10z m-3830 -21 c0 -5 -7 -9 -15 -9 -15 0 -20 12 -9 23 8 8 24 -1 24 -14z
m190 11 c0 -5 -4 -10 -10 -10 -5 0 -10 5 -10 10 0 6 5 10 10 10 6 0 10 -4 10
-10z m150 6 c0 -3 -4 -8 -10 -11 -5 -3 -10 -1 -10 4 0 6 5 11 10 11 6 0 10 -2
10 -4z m-110 -26 c0 -5 -7 -10 -16 -10 -8 0 -12 5 -9 10 3 6 10 10 16 10 5 0
9 -4 9 -10z m5048 -33 c3 -22 -1 -27 -17 -27 -21 0 -26 15 -15 45 9 23 29 13
32 -18z m-1606 -14 l23 -26 -30 7 c-16 4 -32 11 -35 16 -3 4 -14 9 -24 11 -11
2 -21 9 -23 15 -7 21 65 2 89 -23z m-282 1 c0 -16 -16 -19 -25 -4 -8 13 4 32
16 25 5 -4 9 -13 9 -21z m550 16 c0 -5 -7 -10 -15 -10 -8 0 -15 5 -15 10 0 6
7 10 15 10 8 0 15 -4 15 -10z m-3855 -21 c-10 -15 -25 -10 -19 6 4 8 10 12 15
9 5 -3 7 -10 4 -15z m3995 6 c0 -8 -4 -15 -10 -15 -5 0 -7 7 -4 15 4 8 8 15
10 15 2 0 4 -7 4 -15z m-658 -27 c-9 -9 -12 -7 -12 12 0 19 3 21 12 12 9 -9 9
-15 0 -24z m584 18 c10 -8 16 -17 12 -21 -8 -8 -48 13 -48 25 0 14 13 12 36
-4z m-3861 -17 c12 -19 -5 -23 -22 -6 -16 16 -16 17 -1 17 9 0 20 -5 23 -11z
m3645 -9 c0 -5 -4 -10 -10 -10 -5 0 -10 5 -10 10 0 6 5 10 10 10 6 0 10 -4 10
-10z m-393 -15 c8 -9 14 -17 12 -18 -2 -1 -14 -7 -26 -14 -20 -11 -21 -10 -18
15 2 15 4 28 4 30 2 6 14 1 28 -13z m193 -19 c0 -17 -38 -28 -46 -14 -7 11 13
28 34 28 6 0 12 -6 12 -14z m375 -6 c3 -5 2 -10 -4 -10 -5 0 -13 5 -16 10 -3
6 -2 10 4 10 5 0 13 -4 16 -10z m-235 -4 c0 -2 -3 -11 -6 -20 -9 -23 -24 -20
-24 4 0 11 7 20 15 20 8 0 15 -2 15 -4z m60 -6 c0 -5 -7 -10 -16 -10 -8 0 -12
5 -9 10 3 6 10 10 16 10 5 0 9 -4 9 -10z m200 -20 c0 -5 -4 -10 -10 -10 -5 0
-10 5 -10 10 0 6 5 10 10 10 6 0 10 -4 10 -10z m-84 -21 c19 -22 19 -22 -3
-10 -24 12 -39 31 -25 31 5 0 17 -10 28 -21z m-368 -28 c3 -8 -1 -12 -9 -9 -7
2 -15 10 -17 17 -3 8 1 12 9 9 7 -2 15 -10 17 -17z m-108 -21 c0 -5 -4 -10
-10 -10 -5 0 -10 5 -10 10 0 6 5 10 10 10 6 0 10 -4 10 -10z m525 0 c3 -5 -1
-10 -9 -10 -9 0 -16 5 -16 10 0 6 4 10 9 10 6 0 13 -4 16 -10z m-122 -20 c-3
-11 -9 -17 -15 -14 -5 3 -4 12 3 20 16 19 18 18 12 -6z m206 -6 c3 -16 1 -17
-13 -5 -19 16 -21 34 -3 29 6 -3 14 -13 16 -24z m-584 -60 c19 -8 20 -34 1
-34 -8 0 -19 14 -25 31 -13 38 -14 64 -1 31 5 -12 16 -25 25 -28z m275 17 c0
-5 9 -13 20 -16 28 -9 16 -23 -15 -17 -16 3 -25 11 -25 23 0 11 5 19 10 19 6
0 10 -4 10 -9z m240 -1 c0 -5 -2 -10 -4 -10 -3 0 -8 5 -11 10 -3 6 -1 10 4 10
6 0 11 -4 11 -10z m-90 -20 c0 -5 -4 -10 -9 -10 -6 0 -13 5 -16 10 -3 6 1 10
9 10 9 0 16 -4 16 -10z m78 -10 c10 -16 10 -20 -1 -20 -8 0 -22 9 -32 20 -18
19 -17 20 1 20 11 0 25 -9 32 -20z m-404 -49 c-7 -8 -44 32 -44 48 0 11 8 6
24 -14 13 -16 22 -32 20 -34z m201 0 c-5 -17 -10 -19 -25 -11 -18 10 -18 12
-3 30 20 23 38 11 28 -19z m-405 19 c0 -5 -7 -10 -15 -10 -8 0 -15 5 -15 10 0
6 7 10 15 10 8 0 15 -4 15 -10z m680 -13 c0 -13 5 -28 11 -34 8 -8 8 -13 0
-18 -6 -3 -14 2 -18 12 -3 10 -15 28 -26 41 l-20 22 26 0 c21 0 27 -5 27 -23z
m85 -7 c3 -5 2 -10 -4 -10 -5 0 -13 5 -16 10 -3 6 -2 10 4 10 5 0 13 -4 16
-10z m-167 -18 c2 -7 -2 -10 -12 -6 -9 3 -16 11 -16 16 0 13 23 5 28 -10z
m-258 -2 c0 -5 -4 -10 -10 -10 -5 0 -10 5 -10 10 0 6 5 10 10 10 6 0 10 -4 10
-10z m-336 -26 c4 -10 1 -14 -6 -12 -15 5 -23 28 -10 28 5 0 13 -7 16 -16z
m156 -8 c0 -3 -4 -8 -10 -11 -5 -3 -10 -1 -10 4 0 6 5 11 10 11 6 0 10 -2 10
-4z m595 -25 c-3 -6 -14 -11 -23 -11 -13 0 -13 2 4 14 21 15 30 14 19 -3z
m-294 -11 c18 -10 27 -40 11 -40 -13 0 -52 30 -52 41 0 12 17 12 41 -1z m-61
-16 c0 -8 -5 -12 -10 -9 -6 4 -8 11 -5 16 9 14 15 11 15 -7z m240 -28 c4 -11
6 -24 3 -29 -7 -12 -33 20 -33 43 0 25 18 17 30 -14z m124 9 c20 -15 20 -15 0
-15 -10 1 -30 7 -44 15 l-25 14 25 0 c14 0 34 -6 44 -14z m-778 -4 c-3 -4 7
-6 22 -3 35 6 24 -6 -16 -17 -35 -10 -47 -4 -31 16 12 14 33 18 25 4z m84 -16
c-7 -9 -15 -13 -17 -11 -7 7 7 26 19 26 6 0 6 -6 -2 -15z m650 1 c0 -2 3 -11
6 -20 4 -10 1 -16 -7 -16 -7 0 -9 3 -6 7 4 3 -1 12 -11 19 -16 13 -16 13 1 14
9 0 17 -2 17 -4z m-350 -10 c0 -3 -4 -8 -10 -11 -5 -3 -10 -1 -10 4 0 6 5 11
10 11 6 0 10 -2 10 -4z m174 -25 c-3 -16 -1 -38 5 -49 15 -28 -1 -36 -23 -11
-13 16 -14 24 -6 34 7 8 9 19 5 26 -4 6 -1 15 6 20 19 12 19 12 13 -20z m41
19 c3 -5 2 -10 -4 -10 -5 0 -13 5 -16 10 -3 6 -2 10 4 10 5 0 13 -4 16 -10z
m-475 -10 c0 -5 -7 -10 -16 -10 -8 0 -12 5 -9 10 3 6 10 10 16 10 5 0 9 -4 9
-10z m-143 -36 c-9 -9 -28 6 -21 18 4 6 10 6 17 -1 6 -6 8 -13 4 -17z m680 4
c13 -12 23 -28 23 -37 0 -10 -9 -6 -30 14 -29 28 -38 45 -23 45 4 0 17 -10 30
-22z m-632 2 c3 -5 1 -10 -4 -10 -6 0 -11 5 -11 10 0 6 2 10 4 10 3 0 8 -4 11
-10z m486 -77 c13 -15 12 -15 -8 -4 -24 12 -29 21 -14 21 5 0 15 -7 22 -17z
m-611 -24 c0 -6 -4 -7 -10 -4 -5 3 -10 11 -10 16 0 6 5 7 10 4 6 -3 10 -11 10
-16z m520 -38 c0 -9 5 -22 12 -29 9 -9 9 -12 -2 -12 -30 0 -43 16 -31 37 5 11
7 24 3 28 -4 5 -1 5 6 1 6 -4 12 -15 12 -25z m60 19 c0 -5 -4 -10 -9 -10 -6 0
-13 5 -16 10 -3 6 1 10 9 10 9 0 16 -4 16 -10z m230 -40 c0 -5 -4 -10 -10 -10
-5 0 -10 5 -10 10 0 6 5 10 10 10 6 0 10 -4 10 -10z m-2344 -59 c129 -65 142
-74 126 -94 -11 -13 -9 -19 9 -36 13 -12 35 -21 51 -21 20 0 28 -5 28 -17 0
-10 7 -27 15 -37 8 -11 15 -41 15 -67 0 -28 7 -56 18 -70 35 -48 41 -68 42
-140 2 -118 -23 -205 -101 -342 -61 -109 -185 -227 -268 -255 -76 -27 -295 -6
-381 36 -69 33 -135 94 -162 147 -11 22 -26 47 -33 55 -6 8 -24 53 -39 100
-52 158 -31 364 50 487 19 28 34 54 34 57 0 10 34 50 87 102 42 42 68 57 130
79 89 30 216 62 254 64 14 0 70 -21 125 -48z m2144 33 c0 -8 -5 -12 -10 -9 -6
4 -8 11 -5 16 9 14 15 11 15 -7z m177 -8 c12 -13 19 -27 15 -30 -6 -7 -52 33
-52 46 0 15 16 8 37 -16z m43 -202 c0 -13 12 -18 32 -15 4 0 22 -8 40 -19 18
-11 49 -20 69 -20 54 0 65 -18 50 -88 -14 -63 -34 -141 -57 -216 -7 -26 -14
-55 -14 -63 0 -7 -7 -24 -15 -37 -9 -13 -17 -42 -20 -64 -2 -23 -6 -46 -10
-52 -3 -5 -8 -19 -10 -31 -2 -11 -15 -43 -28 -72 -14 -29 -32 -68 -41 -87 -9
-19 -32 -64 -51 -100 -19 -36 -35 -71 -35 -78 0 -7 -11 -18 -25 -24 -14 -6
-25 -20 -25 -30 0 -10 -4 -26 -9 -36 -5 -9 -12 -25 -15 -34 -4 -12 -11 -16
-23 -11 -16 6 -16 5 -5 -10 12 -14 12 -19 0 -30 -7 -7 -21 -16 -30 -20 -10 -3
-15 -12 -12 -21 3 -9 -4 -21 -19 -31 -30 -19 -42 -58 -27 -85 9 -17 8 -20 -10
-20 -26 0 -69 -47 -70 -76 0 -11 -9 -29 -20 -39 -11 -10 -20 -29 -20 -42 0
-17 -6 -23 -21 -23 -15 0 -19 -4 -15 -16 3 -9 -1 -25 -9 -37 -8 -12 -15 -29
-15 -38 0 -9 -7 -22 -15 -29 -8 -7 -15 -20 -15 -29 0 -9 -12 -38 -25 -66 -14
-27 -25 -56 -25 -63 0 -18 -28 -26 -44 -13 -10 8 -18 6 -32 -10 -19 -21 -18
-21 3 -39 l22 -17 -21 -26 c-17 -21 -25 -24 -39 -16 -11 5 -19 16 -19 24 0 24
-13 17 -37 -18 -29 -41 -29 -63 -2 -70 23 -6 21 -34 -3 -29 -28 4 -108 -115
-100 -151 2 -12 -3 -20 -17 -24 -12 -3 -29 -23 -39 -47 -11 -23 -27 -49 -36
-59 -41 -41 -146 -191 -146 -209 0 -12 -9 -22 -21 -25 -14 -4 -19 -12 -16 -24
4 -13 0 -19 -12 -19 -19 0 -65 -56 -57 -69 3 -5 0 -11 -8 -14 -8 -3 -16 -16
-18 -29 -2 -15 -10 -24 -23 -24 -11 -1 -26 -2 -33 -3 -9 -1 -11 -8 -7 -21 5
-15 0 -26 -19 -41 -14 -11 -26 -29 -26 -40 0 -11 -21 -40 -47 -65 -25 -25 -47
-53 -48 -62 -1 -18 -33 -73 -50 -84 -6 -5 -5 -8 3 -8 6 0 12 -4 12 -10 0 -5
-9 -10 -19 -10 -11 0 -22 -3 -24 -7 -13 -21 -68 -4 -136 41 -40 26 -93 57
-117 67 -24 11 -44 22 -44 25 0 3 9 18 19 33 11 15 23 39 26 53 4 15 13 29 21
32 8 3 14 11 14 17 0 7 15 30 33 53 45 58 149 210 168 247 9 17 48 66 87 108
39 42 107 119 152 171 44 52 89 104 99 115 67 74 151 196 151 220 0 16 5 25
12 23 7 -3 24 8 38 22 65 70 137 158 155 191 11 20 52 83 91 141 40 57 88 137
109 178 20 40 47 89 60 109 12 20 30 65 40 101 10 36 23 70 30 75 18 16 38 73
31 90 -3 9 -2 14 3 10 12 -7 61 51 62 73 1 9 1 25 0 35 -1 9 2 17 8 17 14 0
67 98 76 140 4 19 16 51 26 70 11 19 19 40 19 47 0 7 9 40 21 74 12 33 19 74
17 90 -3 20 0 29 9 29 21 0 28 31 10 42 -24 13 -21 31 3 23 15 -5 21 0 25 22
4 15 11 39 15 53 17 47 22 98 11 104 -17 11 -13 36 4 30 9 -4 19 3 26 20 12
26 19 30 52 27 9 -1 17 3 17 9 0 6 5 8 10 5 6 -3 10 -13 10 -21z m-178 -19
c-2 -11 -8 -24 -14 -30 -6 -7 -9 -3 -7 10 2 11 0 26 -5 33 -6 10 -3 13 10 10
12 -2 18 -11 16 -23z m-78 -10 c7 -19 -4 -19 -40 0 l-29 15 31 0 c19 0 34 -6
38 -15z m-114 -29 c0 -2 -7 -7 -16 -10 -8 -3 -12 -2 -9 4 6 10 25 14 25 6z
m218 -103 c-5 -23 -23 -20 -26 4 -3 18 0 21 13 17 9 -4 15 -13 13 -21z m-223
-54 c4 -5 -1 -19 -11 -30 -13 -15 -14 -20 -4 -17 7 2 16 -5 18 -14 2 -11 -2
-18 -11 -18 -19 0 -25 18 -20 58 5 32 16 41 28 21z m745 1 c0 -5 -5 -10 -11
-10 -5 0 -7 5 -4 10 3 6 8 10 11 10 2 0 4 -4 4 -10z m-590 -40 c0 -5 -7 -10
-16 -10 -8 0 -12 5 -9 10 3 6 10 10 16 10 5 0 9 -4 9 -10z m-100 -4 c0 -11
-19 -15 -25 -6 -3 5 1 10 9 10 9 0 16 -2 16 -4z m-3113 -153 c50 -45 102 -83
116 -83 9 0 19 -5 23 -11 4 -8 31 -10 78 -7 l72 5 2 -45 c1 -25 4 -54 7 -64 4
-11 -3 -26 -19 -42 -14 -13 -26 -28 -26 -35 0 -6 -5 -11 -12 -11 -9 0 -9 -3 0
-12 30 -30 6 -37 -28 -8 -12 11 -31 22 -41 25 -11 4 -19 11 -19 17 0 6 -7 20
-16 30 -16 16 -16 18 0 24 13 5 8 11 -21 27 -21 11 -51 23 -67 26 -16 4 -33
14 -38 24 -4 9 -12 25 -17 35 -6 11 -19 16 -36 15 -19 -1 -25 2 -22 12 8 19
-26 25 -48 9 -28 -21 -41 -17 -20 6 17 19 17 20 -6 39 -28 23 -21 33 34 51 20
6 37 16 37 23 0 9 12 0 67 -50z m2873 47 c0 -5 -5 -10 -11 -10 -5 0 -7 5 -4
10 3 6 8 10 11 10 2 0 4 -4 4 -10z m115 -50 c-3 -4 6 -22 20 -38 29 -34 33
-53 8 -30 -10 9 -27 18 -38 20 -23 4 -32 33 -15 53 13 15 35 10 25 -5z m3441
-35 c57 -61 77 -106 64 -139 -5 -15 -16 -29 -24 -32 -7 -3 -16 -19 -20 -35 -4
-21 -19 -38 -52 -59 -26 -16 -51 -27 -56 -24 -5 3 -15 0 -23 -6 -12 -10 -16
-9 -21 4 -4 9 -18 30 -33 45 -14 16 -41 46 -58 67 -29 34 -33 36 -33 16 0 -18
-4 -21 -29 -16 -40 8 -47 -10 -17 -43 15 -15 26 -31 26 -36 0 -4 18 -27 41
-52 39 -42 44 -65 15 -65 -23 0 -38 -28 -41 -74 -3 -53 -45 -110 -80 -112 -13
-1 -38 -11 -58 -22 -41 -26 -47 -27 -47 -7 0 8 -4 15 -10 15 -21 0 -9 18 20
30 16 7 27 16 24 21 -3 5 0 17 6 28 20 39 -32 121 -77 121 -13 0 -26 7 -29 15
-7 18 -30 20 -40 3 -5 -8 -2 -9 9 -5 10 3 17 2 17 -3 0 -6 -6 -10 -13 -10 -7
0 -33 -15 -56 -32 -38 -30 -42 -36 -37 -66 4 -29 3 -31 -10 -17 -23 23 -34 18
-34 -14 0 -17 -4 -32 -9 -35 -5 -3 -12 -22 -15 -42 -13 -67 81 -204 140 -204
13 0 25 -4 29 -9 10 -17 -15 -23 -60 -16 -49 7 -119 61 -155 120 -30 49 -27
134 7 196 14 27 29 49 33 49 10 0 28 47 35 96 3 22 19 63 35 91 49 85 165 138
229 104 28 -15 38 -8 46 32 19 86 85 146 175 157 131 16 140 14 186 -35z
m-3506 -59 c0 -8 -4 -18 -10 -21 -5 -3 -10 3 -10 14 0 12 5 21 10 21 6 0 10
-6 10 -14z m-2955 -16 c-7 -21 10 -29 18 -7 2 6 4 0 3 -15 -1 -31 -5 -33 -41
-16 -29 13 -34 44 -7 51 31 8 33 7 27 -13z m3140 10 c3 -5 1 -10 -4 -10 -6 0
-11 5 -11 10 0 6 2 10 4 10 3 0 8 -4 11 -10z m-253 -43 c21 -11 23 -15 11 -26
-11 -10 -17 -10 -28 -1 -13 11 -21 40 -11 40 2 0 15 -6 28 -13z m-2947 -17 c8
-13 -5 -13 -25 0 -13 8 -13 10 2 10 9 0 20 -4 23 -10z m2885 -4 c0 -2 3 -12 6
-20 4 -12 2 -15 -9 -10 -21 8 -30 34 -12 34 8 0 15 -2 15 -4z m43 -51 c4 -8 2
-17 -3 -20 -6 -4 -10 3 -10 14 0 25 6 27 13 6z m-2866 -21 c-3 -3 -12 -4 -19
-1 -8 3 -5 6 6 6 11 1 17 -2 13 -5z m-47 -24 c0 -5 -2 -10 -4 -10 -3 0 -8 5
-11 10 -3 6 -1 10 4 10 6 0 11 -4 11 -10z m110 -11 c0 -5 -4 -9 -10 -9 -5 0
-10 7 -10 16 0 8 5 12 10 9 6 -3 10 -10 10 -16z m126 -44 c17 -16 14 -18 -10
-9 -9 3 -16 10 -16 15 0 13 9 11 26 -6z m-5496 -15 c0 -5 -2 -10 -4 -10 -3 0
-8 5 -11 10 -3 6 -1 10 4 10 6 0 11 -4 11 -10z m5530 -36 c0 -8 -9 -14 -20
-14 -22 0 -28 26 -7 33 16 6 27 -1 27 -19z m2730 6 c0 -5 -4 -10 -10 -10 -5 0
-10 5 -10 10 0 6 5 10 10 10 6 0 10 -4 10 -10z m-2915 -20 c3 -5 2 -10 -4 -10
-5 0 -13 5 -16 10 -3 6 -2 10 4 10 5 0 13 -4 16 -10z m65 -41 c0 -5 -7 -9 -15
-9 -15 0 -20 12 -9 23 8 8 24 -1 24 -14z m536 -90 c11 -10 28 -19 37 -19 9 0
17 -6 17 -12 0 -22 -17 -41 -29 -34 -6 4 -11 3 -11 -3 0 -5 7 -14 16 -19 15
-8 15 -18 6 -88 -11 -80 -6 -140 17 -181 11 -22 11 -22 -16 -11 -15 6 -32 15
-37 20 -17 14 -36 9 -36 -11 0 -11 -6 -21 -12 -24 -10 -4 -10 -7 0 -18 14 -15
16 -29 4 -29 -13 0 -82 67 -82 79 0 6 9 11 21 11 12 0 17 4 14 11 -4 6 -23 9
-44 7 -33 -3 -36 -1 -36 22 0 20 5 25 23 23 12 -2 22 2 22 7 0 6 -7 10 -15 10
-23 0 -18 18 7 26 16 5 27 1 39 -15 21 -25 23 -25 55 -5 19 13 22 19 13 30 -7
8 -12 23 -13 34 0 11 -4 20 -8 20 -5 0 -12 0 -18 0 -5 0 -10 -7 -10 -15 0 -8
-7 -15 -16 -15 -13 0 -14 3 -4 15 6 8 9 19 5 25 -8 13 -45 13 -45 0 0 -5 -6
-7 -14 -4 -21 8 -49 -42 -36 -65 7 -13 7 -22 0 -26 -13 -8 -30 2 -30 18 -1 7
-14 28 -31 47 -27 32 -28 36 -12 47 9 7 13 13 9 13 -4 0 26 31 66 70 47 45 76
66 82 60 6 -6 14 -10 18 -10 13 0 9 28 -4 34 -7 3 5 3 27 0 22 -3 49 -14 61
-25z m-756 -29 c0 -5 -4 -10 -10 -10 -5 0 -10 5 -10 10 0 6 5 10 10 10 6 0 10
-4 10 -10z m2920 -50 c0 -5 -4 -10 -10 -10 -5 0 -10 5 -10 10 0 6 5 10 10 10
6 0 10 -4 10 -10z m3144 -12 c-3 -5 -12 -4 -20 3 -19 16 -18 18 6 12 11 -3 17
-9 14 -15z m-5684 -48 c0 -5 -7 -7 -15 -4 -8 4 -15 8 -15 10 0 2 7 4 15 4 8 0
15 -4 15 -10z m5753 -160 c8 0 8 -3 1 -10 -12 -12 -44 -3 -44 12 0 6 7 7 16 4
9 -3 21 -6 27 -6z m-5252 -173 c-1 -12 -15 -9 -19 4 -3 6 1 10 8 8 6 -3 11 -8
11 -12z m-41 -127 c0 -5 -4 -10 -10 -10 -5 0 -10 5 -10 10 0 6 5 10 10 10 6 0
10 -4 10 -10z m60 -54 c0 -3 -4 -8 -10 -11 -5 -3 -10 -1 -10 4 0 6 5 11 10 11
6 0 10 -2 10 -4z m-1472 -153 c-16 -2 -40 -2 -55 0 -16 2 -3 4 27 4 30 0 43
-2 28 -4z m147 -13 c17 -7 16 -9 -10 -9 -16 0 -39 4 -50 9 -17 7 -16 9 10 9
17 0 39 -4 50 -9z m3350 -180 c3 -5 -3 -10 -15 -10 -12 0 -18 5 -15 10 3 6 10
10 15 10 5 0 12 -4 15 -10z m-10022 -95 c-3 -9 -8 -14 -10 -11 -3 3 -2 9 2 15
9 16 15 13 8 -4z m5314 -342 c-3 -10 -5 -4 -5 12 0 17 2 24 5 18 2 -7 2 -21 0
-30z m24 -91 c-7 -12 2 -26 37 -57 l46 -42 -20 -32 c-13 -23 -34 -39 -65 -51
-25 -9 -56 -27 -69 -40 -34 -34 -35 -14 -6 82 14 46 30 110 37 143 l11 59 19
-23 c13 -16 16 -28 10 -39z m-3226 -242 c3 -5 -1 -10 -9 -10 -9 0 -16 5 -16
10 0 6 4 10 9 10 6 0 13 -4 16 -10z m3721 1 c5 -5 36 -18 69 -29 33 -12 112
-40 175 -62 63 -23 135 -48 160 -55 25 -7 63 -20 85 -28 45 -16 42 -4 34 -168
l-4 -76 -45 5 c-25 2 -63 13 -86 23 -22 11 -56 18 -75 17 -48 -2 -368 80 -391
101 -4 3 -8 50 -9 103 -1 96 -1 97 32 137 36 44 40 46 55 32z m622 -7 c6 -2
12 -9 12 -15 0 -15 -50 -3 -70 17 -13 14 -12 15 15 9 17 -4 36 -8 43 -11z
m5027 -10 c15 -6 75 -85 75 -100 0 -4 -11 8 -25 27 -14 19 -38 44 -52 57 -27
23 -27 27 2 16z m-9525 -74 c0 -5 -4 -10 -9 -10 -6 0 -13 5 -16 10 -3 6 1 10
9 10 9 0 16 -4 16 -10z m-45 -20 c3 -5 2 -10 -4 -10 -5 0 -13 5 -16 10 -3 6
-2 10 4 10 5 0 13 -4 16 -10z m125 -30 c0 -5 -4 -10 -10 -10 -5 0 -10 5 -10
10 0 6 5 10 10 10 6 0 10 -4 10 -10z m-137 -23 c21 -8 43 -19 50 -27 10 -10 6
-11 -23 -6 -27 5 -32 4 -22 -6 19 -19 14 -26 -14 -20 -14 2 -28 11 -31 18 -3
8 -10 14 -15 14 -6 0 -8 -7 -4 -15 7 -19 -20 -20 -65 -1 -49 20 -53 28 -27 48
26 21 82 19 151 -5z m2650 -19 c13 -10 17 -34 19 -118 3 -102 2 -106 -26 -147
-32 -46 -32 -46 -88 -37 -35 6 -38 9 -44 50 -7 50 28 161 54 171 7 3 22 25 33
49 20 47 26 51 52 32z m-283 -5 c-1 -11 -50 -46 -57 -40 -8 9 7 27 23 27 8 0
14 5 14 10 0 6 5 10 10 10 6 0 10 -3 10 -7z m-2685 -53 c3 -5 2 -10 -4 -10 -5
0 -13 5 -16 10 -3 6 -2 10 4 10 5 0 13 -4 16 -10z m2615 -29 c0 -4 -6 -8 -14
-8 -8 0 -12 6 -9 14 5 13 23 9 23 -6z m6170 -51 c0 -5 -7 -10 -15 -10 -8 0
-15 5 -15 10 0 6 7 10 15 10 8 0 15 -4 15 -10z m-55 -10 c-3 -5 -15 -10 -26
-10 -11 0 -17 5 -14 10 3 6 15 10 26 10 11 0 17 -4 14 -10z m1245 -9 c-5 -11
-15 -23 -21 -27 -6 -3 -3 5 6 20 20 30 30 35 15 7z m-1316 0 c9 -14 -52 -61
-82 -63 -15 0 -31 -2 -37 -3 -5 -2 -16 -3 -23 -4 -7 0 -26 -14 -41 -30 -23
-24 -30 -27 -35 -15 -4 11 -10 12 -25 4 -13 -6 -18 -16 -14 -27 7 -18 -22 -44
-41 -37 -7 3 -18 -2 -25 -10 -7 -8 -18 -13 -25 -10 -6 2 -29 -4 -51 -15 -28
-14 -46 -16 -63 -10 -15 6 -49 4 -95 -5 -94 -19 -187 -31 -213 -28 -12 1 -27
-4 -34 -13 -16 -19 -27 -19 -46 0 -13 13 -9 21 41 70 31 30 61 55 67 55 5 0
24 11 41 24 25 19 54 27 132 36 55 7 103 14 107 17 5 2 54 10 110 18 225 31
299 43 305 49 9 9 41 7 47 -3z m-8424 -106 c61 -7 160 -42 160 -57 0 -6 -6 -8
-14 -5 -26 10 -24 -18 3 -35 31 -21 21 -24 -17 -4 -36 19 -143 27 -449 35 -18
1 -23 7 -23 26 0 21 5 25 30 25 20 0 30 5 30 15 0 13 16 15 113 11 61 -3 137
-8 167 -11z m2536 -106 c5 1 9 -13 10 -29 1 -26 -2 -31 -20 -28 -22 3 -33 36
-21 66 5 13 8 14 14 3 5 -7 12 -12 17 -12z m204 11 c0 -5 -10 -10 -22 -10 -19
0 -20 2 -8 10 19 13 30 13 30 0z m-2530 -20 c0 -5 -4 -10 -10 -10 -5 0 -10 5
-10 10 0 6 5 10 10 10 6 0 10 -4 10 -10z m6588 -184 c15 -8 46 -20 69 -26 23
-7 65 -32 95 -56 29 -24 58 -44 64 -44 12 0 74 -67 74 -80 0 -5 -4 -10 -8 -12
-23 -10 -172 -308 -172 -345 0 -8 -5 -11 -11 -7 -8 4 -9 -3 -5 -22 5 -24 1
-34 -28 -62 -19 -17 -39 -32 -44 -32 -16 0 -54 58 -56 85 -1 23 -2 23 -30 7
-15 -10 -35 -27 -44 -40 -14 -21 -16 -22 -33 -6 -11 10 -19 21 -19 25 0 4 -5
20 -10 35 l-11 27 -15 -21 c-31 -45 -78 -14 -91 60 -6 42 21 181 42 211 8 12
15 30 15 41 0 30 32 96 47 96 7 0 13 7 13 15 0 24 77 138 103 152 28 15 24 16
55 -1z m-8204 -31 c-6 -16 -34 -21 -34 -7 0 13 11 22 26 22 8 0 11 -6 8 -15z
m-174 -66 c0 -5 -4 -9 -10 -9 -5 0 -10 7 -10 16 0 8 5 12 10 9 6 -3 10 -10 10
-16z m8740 -43 c0 -16 -18 -31 -27 -22 -8 8 5 36 17 36 5 0 10 -6 10 -14z
m-3088 -173 c43 -47 69 -100 75 -152 3 -28 12 -56 19 -62 8 -6 14 -16 14 -21
0 -18 -72 -108 -87 -108 -2 0 -29 21 -58 47 -45 38 -58 58 -75 108 -19 58 -19
63 -4 115 30 104 66 126 116 73z m-783 -198 c67 -23 108 -62 141 -130 45 -94
40 -125 -23 -140 -16 -4 -32 -17 -37 -30 -11 -28 -57 -65 -81 -65 -10 0 -21
-5 -25 -11 -5 -8 -29 -10 -75 -6 -61 5 -70 4 -79 -13 -13 -25 -13 -30 5 -30 8
0 15 -4 15 -10 0 -15 -26 -12 -40 5 -7 8 -29 20 -49 26 -76 23 -105 66 -102
152 3 93 49 180 120 230 50 34 60 37 121 37 37 0 86 -7 109 -15z m548 -351
c16 -25 29 -94 18 -94 -4 0 -21 10 -37 22 l-31 22 -46 -52 c-25 -29 -49 -52
-53 -52 -23 0 22 120 59 157 27 27 71 26 90 -3z m10258 -553 c3 -5 1 -12 -5
-16 -5 -3 -10 1 -10 9 0 18 6 21 15 7z m-10651 -29 c16 -12 35 -22 42 -22 23
0 16 -15 -16 -34 -27 -15 -34 -16 -60 -4 -36 16 -43 31 -29 62 13 28 26 28 63
-2z m-609 -40 c26 -31 27 -36 16 -71 -6 -21 -11 -48 -11 -60 0 -11 -4 -21 -9
-21 -11 0 -111 118 -111 132 0 5 12 25 26 43 30 39 39 37 89 -23z m-4835 -17
c0 -11 -85 -45 -110 -44 -23 0 -22 2 10 16 19 8 42 19 50 24 17 9 50 12 50 4z
m16178 -23 c2 -7 -3 -12 -12 -12 -9 0 -16 7 -16 16 0 17 22 14 28 -4z m-16831
-18 c-3 -3 -12 -4 -19 -1 -8 3 -5 6 6 6 11 1 17 -2 13 -5z m16803 -70 c0 -8
-4 -12 -10 -9 -5 3 -10 10 -10 16 0 5 5 9 10 9 6 0 10 -7 10 -16z m-35 -34 c3
-5 17 -10 31 -10 13 0 24 -4 24 -10 0 -17 -36 -11 -61 10 -13 10 -19 19 -12
20 6 0 15 -4 18 -10z m-13925 -20 c0 -5 -5 -10 -11 -10 -5 0 -7 5 -4 10 3 6 8
10 11 10 2 0 4 -4 4 -10z m-3740 -36 c0 -2 -7 -4 -15 -4 -8 0 -15 4 -15 10 0
5 7 7 15 4 8 -4 15 -8 15 -10z m940 -10 c-6 -14 -8 -29 -5 -33 2 -4 8 -26 14
-49 8 -40 8 -42 -15 -42 -15 0 -24 6 -24 15 0 8 7 15 15 15 8 0 15 5 15 10 0
6 -7 13 -15 16 -22 9 -20 70 3 83 9 6 18 11 19 11 1 0 -2 -12 -7 -26z m16746
12 c10 -8 17 -17 14 -19 -10 -10 -59 5 -64 19 -7 18 24 18 50 0z m-17316 -6
c0 -5 7 -10 15 -10 8 0 15 -7 15 -15 0 -12 -11 -15 -45 -13 -54 2 -58 -2 -46
-36 7 -17 7 -26 0 -26 -5 0 -13 8 -16 17 -4 10 -14 24 -22 31 -12 10 -13 15
-3 18 6 3 12 12 12 20 0 16 12 18 26 4 7 -7 17 -5 30 5 23 17 34 19 34 5z
m662 -62 c-8 -8 -20 -7 -44 2 -49 20 -54 27 -28 48 23 19 24 19 53 -10 23 -21
28 -31 19 -40z m-1113 30 c-11 -7 -11 -11 -1 -15 6 -2 12 -9 12 -14 0 -5 -11
-3 -25 3 -28 12 -33 28 -10 28 8 0 15 5 15 11 0 5 5 7 11 3 8 -4 7 -9 -2 -16z
m57 -15 c-4 -4 -11 -1 -16 7 -16 25 -11 35 7 17 9 -9 13 -20 9 -24z m165 -3
c17 -13 19 -19 9 -19 -16 0 -50 22 -50 33 0 12 18 6 41 -14z m64 10 c3 -5 1
-10 -4 -10 -6 0 -11 5 -11 10 0 6 2 10 4 10 3 0 8 -4 11 -10z m-165 -32 c0
-35 -12 -30 -17 7 -2 14 1 25 7 25 5 0 10 -14 10 -32z m743 25 c-7 -2 -19 -2
-25 0 -7 3 -2 5 12 5 14 0 19 -2 13 -5z m-978 -13 c3 -5 -1 -10 -9 -10 -8 0
-18 5 -21 10 -3 6 1 10 9 10 8 0 18 -4 21 -10z m75 -11 c0 -5 -7 -9 -15 -9 -9
0 -12 6 -9 15 6 15 24 11 24 -6z m380 -5 c0 -8 -4 -12 -10 -9 -5 3 -10 10 -10
16 0 5 5 9 10 9 6 0 10 -7 10 -16z m448 -8 c10 -23 7 -36 -10 -36 -4 0 -8 12
-8 26 0 21 -3 25 -17 19 -36 -15 -58 -18 -48 -7 9 9 34 18 61 21 6 0 16 -10
22 -23z m182 16 c0 -12 -59 -34 -71 -26 -9 5 -7 11 6 21 20 14 65 18 65 5z
m16810 -23 c7 -11 10 -21 8 -22 -2 -1 -13 -8 -26 -15 -32 -18 -43 -7 -25 28
17 35 28 38 43 9z m-17110 -7 c0 -14 -11 -21 -26 -15 -8 3 -11 9 -8 14 7 11
34 12 34 1z m-40 -32 c0 -5 -4 -10 -9 -10 -6 0 -13 5 -16 10 -3 6 1 10 9 10 9
0 16 -4 16 -10z"/>
<path d="M598 13513 c6 -2 18 -2 25 0 6 3 1 5 -13 5 -14 0 -19 -2 -12 -5z"/>
<path d="M5580 12445 c0 -20 23 -35 54 -35 16 0 26 -3 23 -6 -7 -7 26 -28 103
-66 47 -24 76 -51 111 -106 17 -27 64 -62 82 -62 3 0 7 14 11 31 16 80 -150
225 -279 244 -83 12 -105 12 -105 0z"/>
<path d="M5145 12430 c-3 -5 -1 -10 4 -10 6 0 11 5 11 10 0 6 -2 10 -4 10 -3
0 -8 -4 -11 -10z"/>
<path d="M5095 12420 c-8 -13 -1 -24 14 -19 6 3 7 10 2 18 -6 10 -10 10 -16 1z"/>
<path d="M5030 12390 c0 -16 47 -34 67 -25 16 8 16 9 -4 12 -13 3 -23 9 -23
14 0 5 -9 9 -20 9 -11 0 -20 -5 -20 -10z"/>
<path d="M4942 12344 c-24 -12 -55 -34 -70 -49 -14 -14 -39 -29 -54 -32 -39
-8 -99 -69 -142 -145 -33 -59 -36 -72 -42 -174 -6 -91 -4 -120 11 -165 10 -30
22 -60 28 -66 17 -23 57 -14 91 20 18 17 45 40 60 51 27 18 28 21 21 70 -15
102 -3 198 32 266 7 14 13 29 13 33 0 9 50 78 63 88 5 4 12 22 16 40 6 28 11
34 33 34 41 0 54 19 27 39 -29 20 -33 19 -87 -10z"/>
<path d="M5960 12150 c0 -5 5 -10 10 -10 6 0 10 5 10 10 0 6 -4 10 -10 10 -5
0 -10 -4 -10 -10z"/>
<path d="M6480 12056 c-19 -8 -49 -15 -66 -15 -45 -1 -116 -42 -138 -81 -18
-31 -18 -37 -5 -104 13 -62 19 -73 48 -93 19 -13 47 -23 63 -23 43 0 68 -17
68 -47 0 -24 2 -25 38 -20 106 16 157 28 166 37 5 5 23 10 38 10 36 0 37 17 1
19 -16 1 -48 2 -73 4 -42 2 -45 4 -45 30 -1 25 2 27 42 27 23 0 54 -5 68 -12
18 -8 29 -9 33 -1 4 5 17 15 30 22 29 15 19 31 -19 31 -27 0 -118 19 -127 26
-2 1 2 12 8 24 8 15 18 20 32 17 11 -3 29 0 39 6 16 10 22 9 30 -3 9 -13 10
-13 7 0 -3 8 -30 28 -61 44 -57 28 -66 46 -23 46 35 0 86 20 86 35 0 8 -21 15
-57 18 -32 4 -78 9 -103 12 -27 3 -59 -1 -80 -9z m75 -136 c4 -6 -5 -10 -21
-10 l-26 0 23 -21 c22 -18 22 -20 4 -15 -92 23 -106 39 -45 49 46 8 59 7 65
-3z"/>
<path d="M6923 12033 c-21 -8 -14 -36 17 -73 46 -53 42 -97 -11 -140 -42 -33
-151 -69 -157 -51 -4 12 -58 -3 -55 -15 2 -5 37 -9 78 -9 57 -1 82 3 103 17
15 10 37 18 50 18 36 0 82 28 93 58 6 16 8 55 4 93 l-7 66 -44 21 c-46 23 -51
24 -71 15z"/>
<path d="M6793 11943 c-7 -2 -13 -9 -13 -15 0 -6 6 -8 14 -5 8 3 17 -1 20 -9
8 -20 8 -24 -1 -23 -26 4 -34 -1 -21 -15 8 -9 17 -11 22 -5 6 5 15 4 23 -3 10
-8 18 -7 31 6 10 9 24 16 30 16 7 0 12 6 12 14 0 9 -15 17 -40 21 -22 4 -42
11 -46 16 -6 10 -12 10 -31 2z"/>
<path d="M6913 11286 c-15 -26 -85 -76 -121 -85 -27 -8 -47 -6 -86 7 -58 19
-110 18 -102 -3 2 -7 -2 -19 -10 -25 -8 -7 -14 -19 -14 -27 0 -9 -6 -13 -15
-9 -8 3 -21 -4 -29 -15 -12 -18 -17 -19 -35 -7 -27 16 -27 26 1 30 12 2 23 9
26 16 2 8 -2 10 -13 6 -12 -5 -16 -2 -13 12 3 16 -3 19 -37 17 -22 -2 -50 -8
-62 -14 -19 -10 -26 -9 -41 4 -10 10 -24 17 -30 17 -15 0 -25 -36 -16 -62 15
-48 44 -57 142 -43 43 6 52 5 52 -8 0 -21 21 -27 115 -34 44 -3 100 -11 125
-18 25 -7 60 -11 78 -10 18 2 34 -1 37 -5 3 -5 44 -20 91 -35 62 -19 97 -25
128 -21 35 5 46 2 61 -14 25 -27 47 -25 76 8 59 64 70 120 27 143 -10 6 -18
18 -17 27 4 23 -10 62 -22 62 -5 0 -7 10 -4 23 6 22 5 22 -89 19 -98 -3 -136
7 -165 42 -17 20 -28 20 -38 2z m274 -92 c-3 -3 -12 -4 -19 -1 -8 3 -5 6 6 6
11 1 17 -2 13 -5z"/>
<path d="M6295 10940 c-5 -15 -3 -25 6 -31 17 -11 24 13 11 37 -9 15 -10 15
-17 -6z"/>
<path d="M4822 7244 c10 -10 20 -15 24 -12 3 4 -5 12 -18 18 -22 12 -22 12 -6
-6z"/>
<path d="M4951 6984 c0 -11 3 -14 6 -6 3 7 2 16 -1 19 -3 4 -6 -2 -5 -13z"/>
<path d="M4950 6950 c0 -12 28 -25 36 -17 3 3 -4 10 -15 17 -15 7 -21 7 -21 0z"/>
<path d="M5245 6440 c3 -5 11 -10 16 -10 6 0 7 5 4 10 -3 6 -11 10 -16 10 -6
0 -7 -4 -4 -10z"/>
<path d="M20288 10963 c7 -3 16 -2 19 1 4 3 -2 6 -13 5 -11 0 -14 -3 -6 -6z"/>
<path d="M20275 10940 c-19 -8 -19 -9 3 -9 12 -1 22 4 22 9 0 6 -1 10 -2 9 -2
0 -12 -4 -23 -9z"/>
<path d="M16457 9716 c-4 -10 -5 -21 -2 -24 9 -9 17 6 13 25 -3 17 -4 17 -11
-1z"/>
<path d="M16230 9540 c8 -5 20 -10 25 -10 6 0 3 5 -5 10 -8 5 -19 10 -25 10
-5 0 -3 -5 5 -10z"/>
<path d="M18056 9571 c-3 -5 0 -14 7 -19 10 -8 13 -6 14 9 2 19 -11 26 -21 10z"/>
<path d="M18750 9060 c0 -5 5 -10 10 -10 6 0 10 5 10 10 0 6 -4 10 -10 10 -5
0 -10 -4 -10 -10z"/>
<path d="M15028 8813 c7 -3 16 -2 19 1 4 3 -2 6 -13 5 -11 0 -14 -3 -6 -6z"/>
<path d="M15098 8803 c7 -3 16 -2 19 1 4 3 -2 6 -13 5 -11 0 -14 -3 -6 -6z"/>
<path d="M15478 8753 c7 -3 16 -2 19 1 4 3 -2 6 -13 5 -11 0 -14 -3 -6 -6z"/>
<path d="M15510 8730 c8 -5 20 -10 25 -10 6 0 3 5 -5 10 -8 5 -19 10 -25 10
-5 0 -3 -5 5 -10z"/>
<path d="M15578 8714 c-4 -4 -5 -11 -2 -15 7 -13 34 -11 34 2 0 5 -4 8 -9 5
-5 -4 -11 -1 -13 5 -2 5 -7 7 -10 3z"/>
<path d="M15653 8683 c9 -2 23 -2 30 0 6 3 -1 5 -18 5 -16 0 -22 -2 -12 -5z"/>
<path d="M13876 8349 c-33 -39 -33 -64 0 -85 24 -16 27 -16 51 3 75 55 81 113
13 113 -30 0 -43 -6 -64 -31z"/>
<path d="M15061 8332 c-18 -33 -13 -58 18 -91 37 -39 61 -39 84 0 35 62 18 97
-52 106 -32 4 -41 2 -50 -15z"/>
<path d="M14797 8039 c-32 -5 -97 -22 -145 -38 -48 -16 -112 -34 -142 -40
-120 -22 -316 -43 -388 -40 -149 5 -160 3 -182 -33 -76 -125 93 -354 285 -387
163 -29 432 0 562 60 24 10 47 19 53 19 12 0 57 27 80 47 8 8 35 26 59 42 93
61 133 174 92 266 -11 25 -27 48 -35 51 -9 3 -16 12 -16 20 0 8 -10 14 -25 14
-14 0 -26 0 -27 0 -2 0 -25 7 -52 15 -27 8 -52 14 -55 14 -3 -1 -32 -5 -64
-10z m-23 -65 c3 -9 6 -37 6 -63 0 -37 -7 -56 -30 -88 -50 -68 -126 -65 -162
7 l-18 34 -6 -32 c-10 -48 -63 -86 -122 -86 -41 -1 -48 2 -69 33 -29 43 -32
115 -5 126 9 3 55 11 101 16 75 9 85 8 97 -8 13 -17 13 -17 14 3 0 27 19 44
50 44 14 1 48 7 75 15 64 18 62 18 69 -1z m-546 -90 c7 -2 12 -22 12 -52 0
-40 -5 -53 -29 -76 -61 -59 -131 -20 -139 78 l-4 55 33 4 c33 3 102 -1 127 -9z
m72 -309 c14 -16 10 -18 -14 -9 -9 3 -16 10 -16 15 0 14 16 11 30 -6z m261
-26 c-57 -23 -207 -31 -223 -12 -13 16 3 17 49 4 24 -7 35 -6 44 5 8 10 33 14
83 13 56 0 66 -2 47 -10z"/>
<path d="M16650 7270 c0 -11 2 -20 4 -20 2 0 6 9 9 20 3 11 1 20 -4 20 -5 0
-9 -9 -9 -20z"/>
<path d="M16540 7212 c-8 -3 -19 -11 -25 -19 -5 -7 -30 -15 -55 -18 -75 -9
-131 -27 -138 -44 -3 -9 -10 -20 -16 -24 -18 -13 37 4 61 19 12 8 34 14 49 14
21 0 138 35 152 46 10 7 -15 30 -28 26z"/>
<path d="M13755 7201 c12 -20 115 -62 115 -47 0 4 -108 56 -117 56 -2 0 -2 -4
2 -9z"/>
<path d="M13910 7140 c19 -4 47 -11 63 -15 16 -4 27 -3 27 3 0 11 -50 22 -94
21 l-31 -1 35 -8z"/>
<path d="M16095 7090 c3 -5 8 -10 11 -10 2 0 4 5 4 10 0 6 -5 10 -11 10 -5 0
-7 -4 -4 -10z"/>
<path d="M15605 4590 c3 -5 11 -10 16 -10 6 0 7 5 4 10 -3 6 -11 10 -16 10 -6
0 -7 -4 -4 -10z"/>
<path d="M15521 4524 c0 -11 3 -14 6 -6 3 7 2 16 -1 19 -3 4 -6 -2 -5 -13z"/>
<path d="M15460 4339 c14 -12 26 -25 26 -30 1 -5 2 -12 3 -16 0 -4 6 -2 13 5
9 9 5 17 -18 37 -16 14 -33 25 -39 25 -5 -1 1 -10 15 -21z"/>
<path d="M12670 4250 c0 -5 5 -10 11 -10 5 0 7 5 4 10 -3 6 -8 10 -11 10 -2 0
-4 -4 -4 -10z"/>
<path d="M13879 3876 c26 -31 -6 -102 -41 -93 -22 6 -24 -6 -4 -22 12 -10 17
-8 26 9 8 14 17 19 28 15 9 -4 21 -7 27 -8 5 -1 14 -8 20 -15 7 -9 9 1 7 33
-3 31 -10 50 -22 57 -10 7 -16 18 -13 25 3 8 -3 13 -17 13 -18 0 -20 -3 -11
-14z"/>
<path d="M13961 3824 c0 -11 3 -14 6 -6 3 7 2 16 -1 19 -3 4 -6 -2 -5 -13z"/>
<path d="M12205 7184 c9 -9 19 -13 23 -10 3 4 0 11 -8 16 -24 15 -33 11 -15
-6z"/>
<path d="M12303 7042 c-13 -2 -23 -7 -23 -12 0 -13 34 -22 38 -10 3 7 10 4 18
-7 7 -10 14 -13 14 -7 0 20 -25 40 -47 36z"/>
<path d="M12235 6970 c-3 -5 -1 -10 4 -10 6 0 11 5 11 10 0 6 -2 10 -4 10 -3
0 -8 -4 -11 -10z"/>
<path d="M13608 5257 c-7 -7 -26 -22 -41 -32 -21 -13 -27 -25 -25 -44 3 -22 8
-26 35 -25 45 2 103 40 103 68 0 41 -43 61 -72 33z"/>
<path d="M13783 5250 c-27 -11 -28 -21 -8 -60 23 -44 72 -75 103 -64 14 5 27
14 29 21 4 11 -84 114 -96 112 -3 0 -16 -4 -28 -9z"/>
<path d="M13965 5190 c-8 -13 15 -24 27 -12 6 6 4 11 -6 15 -8 3 -18 2 -21 -3z"/>
<path d="M13402 5098 c-7 -7 -12 -18 -12 -24 0 -20 55 -54 110 -67 56 -13 57
-14 35 -102 -8 -33 -14 -90 -15 -126 0 -87 15 -102 108 -107 37 -2 87 1 110 8
36 9 46 18 58 46 17 41 6 64 -30 64 -16 0 -27 -10 -37 -32 -11 -27 -22 -34
-54 -40 -56 -10 -95 -1 -95 22 0 11 16 88 35 171 19 84 35 156 35 160 0 14
-56 26 -130 28 -41 1 -82 4 -90 6 -9 3 -21 0 -28 -7z"/>
<path d="M13844 5080 c-28 -11 -59 -59 -46 -72 13 -13 78 -27 124 -28 28 0 42
6 57 26 28 35 26 58 -4 72 -30 14 -100 15 -131 2z"/>
<path d="M14128 5023 c5 -21 7 -23 10 -9 2 10 0 22 -6 28 -6 6 -7 0 -4 -19z"/>
<path d="M13475 4750 c-3 -5 -1 -10 4 -10 6 0 11 5 11 10 0 6 -2 10 -4 10 -3
0 -8 -4 -11 -10z"/>
<path d="M13545 4606 c-8 -19 -15 -41 -15 -49 0 -20 21 -37 46 -37 14 0 25 -8
29 -21 4 -11 17 -25 30 -31 30 -13 76 17 95 62 16 38 8 47 -28 34 -26 -10 -28
-9 -27 15 0 27 -19 33 -57 17 -12 -6 -17 -2 -20 16 -5 38 -36 35 -53 -6z"/>
<path d="M19181 4831 c-36 -32 -41 -42 -35 -65 7 -29 25 -34 44 -11 7 8 16 15
21 15 16 0 38 -31 32 -45 -8 -23 16 -48 33 -34 30 25 58 109 36 109 -5 0 -27
16 -49 34 l-40 35 -42 -38z"/>
<path d="M18830 4618 c0 -18 5 -28 15 -28 19 0 19 11 0 36 -14 18 -14 18 -15
-8z"/>
<path d="M18785 4590 c3 -5 12 -7 20 -3 21 7 19 13 -6 13 -11 0 -18 -4 -14
-10z"/>
<path d="M18965 4470 c-3 -5 1 -10 9 -10 9 0 16 5 16 10 0 6 -4 10 -9 10 -6 0
-13 -4 -16 -10z"/>
<path d="M13470 4065 c7 -8 17 -15 22 -15 6 0 5 7 -2 15 -7 8 -17 15 -22 15
-6 0 -5 -7 2 -15z"/>
<path d="M4980 1091 c0 -5 7 -12 16 -15 24 -9 27 -7 10 9 -17 17 -26 19 -26 6z"/>
<path d="M5191 1084 c0 -11 3 -14 6 -6 3 7 2 16 -1 19 -3 4 -6 -2 -5 -13z"/>
<path d="M5045 1070 c3 -5 11 -10 16 -10 6 0 7 5 4 10 -3 6 -11 10 -16 10 -6
0 -7 -4 -4 -10z"/>
<path d="M4788 802 c-97 -29 -118 -39 -118 -54 0 -14 5 -18 18 -14 14 4 80 18
229 51 23 5 53 31 53 46 0 17 -65 7 -182 -29z"/>
<path d="M4855 674 c-27 -9 -55 -20 -62 -26 -7 -5 -21 -7 -32 -3 -31 9 -178
-32 -441 -124 -63 -23 -123 -41 -132 -41 -10 0 -18 -6 -18 -14 0 -8 -3 -22 -6
-31 -6 -14 1 -16 57 -13 48 3 64 7 64 18 0 20 40 40 100 50 50 9 191 52 232
72 12 6 29 8 37 5 8 -3 18 -2 21 3 4 6 14 10 24 10 9 0 35 13 57 28 31 23 48
28 86 27 25 -2 51 -6 57 -9 6 -4 11 -2 11 4 0 6 4 9 9 6 11 -7 59 30 50 38
-14 14 -68 14 -114 0z"/>
<path d="M5968 603 c-42 -7 -52 -26 -33 -62 13 -25 22 -31 49 -31 18 0 35 3
39 6 3 4 24 7 46 8 27 2 49 10 66 26 30 28 31 35 8 45 -22 9 -139 14 -175 8z"/>
<path d="M3700 515 c-25 -13 -55 -24 -67 -25 -25 0 -56 -27 -48 -41 10 -15 55
-10 168 20 62 16 102 31 93 34 -9 4 -16 13 -16 22 0 24 -77 18 -130 -10z"/>
<path d="M6590 511 c0 -41 13 -80 29 -84 10 -3 3 -7 -17 -12 -25 -6 -30 -10
-21 -21 6 -7 20 -14 32 -16 18 -3 12 -9 -30 -31 -39 -20 -54 -34 -59 -55 -10
-48 -14 -54 -33 -59 -12 -3 -21 -17 -26 -40 -9 -47 14 -80 61 -89 51 -9 263 5
299 21 17 7 45 19 63 26 30 13 33 17 27 46 -4 25 -2 34 14 43 16 8 19 17 14
43 -9 48 -24 59 -94 64 -35 2 -68 8 -73 13 -5 5 -21 7 -35 4 -17 -4 -34 1 -48
14 -13 10 -21 21 -18 23 2 3 48 4 101 2 83 -1 99 1 117 18 11 10 18 22 14 25
-4 4 -2 13 4 20 30 36 -37 38 -96 4 -33 -20 -87 -17 -106 6 -6 8 -19 14 -28
14 -9 0 -31 9 -49 20 -40 25 -42 25 -42 1z"/>
<path d="M3890 510 c-13 -8 -12 -10 3 -10 9 0 20 0 24 -1 4 0 9 4 11 10 5 14
-18 14 -38 1z"/>
<path d="M5185 450 c4 -6 11 -8 16 -5 14 9 11 15 -7 15 -8 0 -12 -5 -9 -10z"/>
<path d="M7090 442 c0 -21 27 -62 41 -62 14 0 11 33 -7 58 -18 27 -34 29 -34
4z"/>
<path d="M6384 433 c-13 -10 -10 -12 22 -15 28 -2 40 -8 42 -21 3 -16 -1 -18
-32 -14 -20 3 -53 1 -74 -5 -20 -5 -62 -12 -93 -16 -51 -7 -56 -6 -51 10 2 10
9 18 14 18 5 0 6 5 3 10 -11 17 -23 11 -27 -12 -3 -23 -13 -26 -68 -17 -23 4
-25 1 -22 -26 6 -50 18 -57 91 -52 66 5 163 26 211 45 28 11 84 68 93 94 5 14
-1 16 -43 15 -27 -1 -57 -7 -66 -14z"/>
<path d="M6515 390 c3 -5 8 -10 11 -10 2 0 4 5 4 10 0 6 -5 10 -11 10 -5 0 -7
-4 -4 -10z"/>
<path d="M5370 103 l-55 -25 25 -14 c14 -7 30 -13 36 -14 16 0 85 65 77 73
-10 11 -24 7 -83 -20z"/>
<path d="M5980 69 c-19 -6 -66 -22 -105 -37 l-70 -27 155 -3 c85 -1 161 0 169
3 11 4 5 14 -22 40 -39 37 -62 41 -127 24z"/>
<path d="M5153 3 c9 -2 23 -2 30 0 6 3 -1 5 -18 5 -16 0 -22 -2 -12 -5z"/>
</g>
</svg>
